<svg version="1.1" xmlns="http://www.w3.org/2000/svg" viewBox="0 0 1403.5625 566" width="1403.5625" height="566">
  <!-- svg-source:excalidraw -->
  
  <defs>
    <style class="style-fonts">
      @font-face {
        font-family: "Virgil";
        src: url("https://excalidraw.com/Virgil.woff2");
      }
      @font-face {
        font-family: "Cascadia";
        src: url("https://excalidraw.com/Cascadia.woff2");
      }
      @font-face {
        font-family: "Assistant";
        src: url("https://excalidraw.com/Assistant-Regular.woff2");
      }
    </style>
    
  </defs>
  <rect x="0" y="0" width="1403.5625" height="566" fill="#ffffff"></rect><g stroke-linecap="round"><g transform="translate(130.0756014933621 201.16149329191592) rotate(194.42147950005688 16.95025307035005 -28.355249556521446)" fill-rule="evenodd"><path d="M2.12 -2.34 C2.42 -3.13, -1.96 -1.37, 2.42 -6.78 C6.8 -12.19, 22.83 -28.58, 28.41 -34.81 C33.99 -41.04, 34.31 -41.7, 35.9 -44.17 C37.49 -46.65, 37.02 -48.42, 37.94 -49.67 C38.86 -50.92, 41.14 -51.25, 41.41 -51.67 C41.67 -52.09, 40.75 -51.02, 39.51 -52.19 C38.27 -53.36, 35.18 -58.24, 33.96 -58.7 C32.73 -59.15, 33.82 -57.07, 32.16 -54.93 C30.5 -52.79, 28.56 -50.48, 24 -45.86 C19.44 -41.25, 9.55 -32.57, 4.81 -27.22 C0.06 -21.88, -2.37 -16.4, -4.45 -13.81 C-6.52 -11.21, -7.96 -13.76, -7.64 -11.67 C-7.31 -9.58, -4.2 -3.33, -2.52 -1.26 C-0.84 0.81, 2.43 0.22, 2.44 0.76" stroke="none" stroke-width="0" fill="#2281b9" fill-rule="evenodd"></path><path d="M1.18 -0.98 C1.97 -1.82, 0.94 1.1, 4.94 -4.21 C8.94 -9.51, 20.3 -26.31, 25.18 -32.81 C30.06 -39.31, 32.07 -40.69, 34.23 -43.22 C36.38 -45.75, 37.09 -46.88, 38.12 -48 C39.15 -49.11, 40.09 -49.01, 40.41 -49.92 C40.73 -50.83, 41.03 -52.28, 40.04 -53.46 C39.05 -54.65, 35.84 -56.63, 34.48 -57.02 C33.13 -57.41, 33.3 -57.68, 31.91 -55.82 C30.52 -53.96, 30.15 -50.9, 26.15 -45.86 C22.14 -40.82, 13.08 -31.13, 7.89 -25.59 C2.7 -20.04, -2.79 -15, -4.99 -12.59 C-7.19 -10.18, -5.5 -13.06, -5.32 -11.14 C-5.15 -9.21, -4.82 -2.98, -3.96 -1.01 C-3.1 0.95, -0.71 0.62, -0.14 0.63 M0.34 1.12 C0.97 -0.1, -0.45 -0.26, 4.09 -5.7 C8.62 -11.15, 22.47 -25.48, 27.52 -31.56 C32.57 -37.64, 32.83 -39.47, 34.38 -42.19 C35.94 -44.92, 36.2 -46.48, 36.86 -47.89 C37.51 -49.3, 38.23 -50.08, 38.32 -50.66 C38.42 -51.23, 37.69 -50.22, 37.43 -51.37 C37.18 -52.51, 37.46 -57.11, 36.8 -57.52 C36.14 -57.93, 35.64 -55.73, 33.48 -53.82 C31.32 -51.91, 28.57 -50.98, 23.84 -46.06 C19.1 -41.15, 9.6 -29.96, 5.07 -24.35 C0.54 -18.74, -1.72 -14.98, -3.33 -12.4 C-4.95 -9.81, -4.37 -10.7, -4.63 -8.85 C-4.89 -7, -5.68 -2.84, -4.89 -1.29 C-4.1 0.25, -0.74 0.22, 0.11 0.4" stroke="#000000" stroke-width="2" fill="none"></path></g></g><mask></mask><g stroke-linecap="round"><g transform="translate(165.7028191232282 223.73443847203333) rotate(345.5785204999431 -17.55102958029818 -30.517746339207363)" fill-rule="evenodd"><path d="M-2.35 -1.39 C-3.14 -2.32, 1.14 -2.12, -2.62 -7.94 C-6.39 -13.75, -19.63 -29.51, -24.94 -36.28 C-30.25 -43.05, -32.5 -45.92, -34.46 -48.58 C-36.43 -51.24, -35.78 -51.41, -36.73 -52.23 C-37.68 -53.05, -39.52 -52.36, -40.18 -53.5 C-40.84 -54.64, -41.41 -57.88, -40.69 -59.08 C-39.98 -60.28, -37.02 -60.69, -35.9 -60.68 C-34.79 -60.67, -35.42 -60.65, -33.99 -59.04 C-32.56 -57.43, -31.74 -56.17, -27.33 -51.02 C-22.92 -45.86, -12.5 -33.87, -7.53 -28.1 C-2.56 -22.33, 0.16 -19.11, 2.47 -16.38 C4.78 -13.64, 5.74 -14.4, 6.33 -11.69 C6.92 -8.99, 7.45 -2.43, 5.99 -0.15 C4.54 2.13, -1.21 1.63, -2.42 2.01" stroke="none" stroke-width="0" fill="#0a84d1" fill-rule="evenodd"></path><path d="M0.17 1.19 C-1 0.36, -1.39 0.15, -5.86 -5.94 C-10.32 -12.02, -21.88 -28.5, -26.61 -35.33 C-31.35 -42.15, -32.43 -44.38, -34.28 -46.9 C-36.13 -49.43, -36.83 -49.17, -37.72 -50.48 C-38.62 -51.8, -39.24 -53.62, -39.65 -54.77 C-40.06 -55.92, -40.76 -56.27, -40.17 -57.4 C-39.59 -58.53, -37.54 -61.29, -36.16 -61.57 C-34.77 -61.84, -33.84 -61.06, -31.85 -59.03 C-29.87 -57, -28.21 -54.74, -24.24 -49.38 C-20.28 -44.02, -12.91 -32.47, -8.07 -26.88 C-3.24 -21.29, 2.63 -18.42, 4.79 -15.85 C6.95 -13.28, 5.12 -14.04, 4.89 -11.44 C4.66 -8.85, 4.31 -2.03, 3.41 -0.28 C2.5 1.47, -0.04 -0.81, -0.55 -0.93 M-1.19 0.77 C-2.11 0.22, 0.68 1.34, -3.69 -4.47 C-8.07 -10.28, -22.45 -27.15, -27.47 -34.09 C-32.49 -41.02, -31.9 -43.47, -33.83 -46.09 C-35.76 -48.7, -37.76 -48.13, -39.03 -49.79 C-40.31 -51.45, -41.35 -54.51, -41.49 -56.03 C-41.62 -57.55, -41.11 -57.88, -39.85 -58.91 C-38.59 -59.93, -35.09 -61.98, -33.94 -62.19 C-32.79 -62.4, -34.16 -62.27, -32.94 -60.17 C-31.72 -58.07, -30.71 -54.79, -26.61 -49.58 C-22.52 -44.38, -13.42 -35.01, -8.34 -28.94 C-3.27 -22.87, 1.63 -15.93, 3.84 -13.16 C6.04 -10.4, 5.09 -14.53, 4.89 -12.36 C4.69 -10.19, 3.53 -2.48, 2.63 -0.14 C1.73 2.2, -0.33 1.7, -0.52 1.68" stroke="#000000" stroke-width="2" fill="none"></path></g></g><mask></mask><g stroke-linecap="round"><g transform="translate(170.76853478255885 150.83322321620955) rotate(0 8.178383341647699 32.966737191914795)" fill-rule="evenodd"><path d="M1.3 -1.17 C0.73 -0.56, -3.09 2.04, -3.18 1.4 C-3.27 0.77, -1.12 -4.46, 0.74 -4.97 C2.59 -5.48, 5.78 -2.95, 7.94 -1.63 C10.1 -0.32, 12.28 1.66, 13.69 2.9 C15.1 4.15, 15.56 2.5, 16.4 5.84 C17.24 9.17, 18.39 15.54, 18.72 22.89 C19.05 30.24, 18.38 43.69, 18.36 49.92 C18.34 56.15, 20.08 56.99, 18.61 60.28 C17.13 63.57, 12.98 68.27, 9.49 69.68 C6 71.08, -1 68.93, -2.32 68.72 C-3.65 68.51, 0.23 69.28, 1.54 68.41 C2.85 67.55, 5.25 66.45, 5.55 63.53 C5.84 60.62, 3.81 59.06, 3.31 50.92 C2.81 42.78, 2.83 22.59, 2.54 14.71 C2.25 6.83, 1.89 5.65, 1.55 3.63 C1.22 1.61, 0.77 3.06, 0.52 2.58 C0.28 2.09, -0.01 1.46, 0.1 0.73" stroke="none" stroke-width="0" fill="#41aef2" fill-rule="evenodd"></path><path d="M-1.05 -0.13 C-1.68 -0.26, -4.16 0.96, -3.61 0.4 C-3.06 -0.17, 0.19 -3.23, 2.26 -3.53 C4.32 -3.83, 6.57 -2.34, 8.78 -1.41 C10.99 -0.48, 13.99 0.68, 15.51 2.03 C17.02 3.37, 17.39 3.29, 17.89 6.68 C18.39 10.08, 18 14.86, 18.5 22.41 C19 29.95, 20.88 45.5, 20.9 51.96 C20.91 58.42, 21.09 58.15, 18.59 61.17 C16.1 64.19, 8.86 69.34, 5.92 70.09 C2.99 70.83, 1.57 66.33, 0.98 65.67 C0.39 65, 1.74 66.29, 2.38 66.1 C3.01 65.91, 4.57 66.96, 4.79 64.53 C5 62.11, 3.97 59.89, 3.64 51.57 C3.32 43.26, 2.77 22.77, 2.83 14.65 C2.88 6.53, 4.27 5.24, 3.96 2.85 C3.66 0.46, 1.48 0.98, 1 0.33 C0.52 -0.32, 1.12 -0.9, 1.07 -1.04 M0.6 -1.24 C-0.22 -0.68, -4.83 2.06, -4.65 1.85 C-4.47 1.64, -0.61 -1.58, 1.7 -2.5 C4 -3.42, 7.06 -4.45, 9.19 -3.66 C11.31 -2.88, 12.81 0.67, 14.45 2.2 C16.08 3.72, 18.27 1.77, 18.98 5.48 C19.7 9.19, 18.48 16.71, 18.73 24.44 C18.97 32.17, 20.67 45.93, 20.45 51.86 C20.24 57.8, 19.83 56.98, 17.44 60.04 C15.05 63.1, 8.72 69.24, 6.1 70.25 C3.49 71.26, 2.05 66.88, 1.77 66.1 C1.48 65.33, 3.87 65.93, 4.4 65.59 C4.92 65.25, 5.23 66.49, 4.94 64.04 C4.65 61.59, 2.92 58.69, 2.65 50.89 C2.38 43.09, 3.44 25.12, 3.32 17.22 C3.19 9.32, 1.97 6.25, 1.88 3.5 C1.8 0.75, 3.06 1.51, 2.8 0.73 C2.55 -0.06, 0.86 -1.01, 0.35 -1.22" stroke="#000000" stroke-width="2" fill="none"></path></g></g><mask></mask><g transform="translate(75.3125 247.07944166264656) rotate(0 79.6875 9.599999999999994)"><text x="79.6875" y="0" font-family="Cascadia, Segoe UI Emoji" font-size="16px" fill="#1e1e1e" text-anchor="middle" style="white-space: pre;" direction="ltr" dominant-baseline="text-before-edge">Local Development</text></g><g stroke-linecap="round" transform="translate(122.76942381752087 381.26444972972894) rotate(0 32.230576182478494 32.199712367130076)"><path d="M0 0 C0 0, 0 0, 0 0 M0 0 C0 0, 0 0, 0 0 M0.13 12.04 C4.01 7.58, 7.88 3.12, 10.63 -0.03 M0.13 12.04 C2.99 8.75, 5.85 5.47, 10.63 -0.03 M0.27 24.08 C6.15 17.31, 12.04 10.54, 21.26 -0.07 M0.27 24.08 C6.69 16.69, 13.11 9.3, 21.26 -0.07 M-0.26 36.88 C11.79 23.02, 23.83 9.16, 31.89 -0.1 M-0.26 36.88 C11.62 23.22, 23.49 9.56, 31.89 -0.1 M-0.12 48.92 C15.01 31.51, 30.14 14.1, 42.52 -0.14 M-0.12 48.92 C11.54 35.51, 23.19 22.09, 42.52 -0.14 M0.01 60.96 C12.27 46.85, 24.54 32.74, 53.15 -0.17 M0.01 60.96 C16.11 42.44, 32.2 23.93, 53.15 -0.17 M7.36 64.7 C21.87 48, 36.39 31.31, 63.78 -0.21 M7.36 64.7 C23.1 46.59, 38.84 28.48, 63.78 -0.21 M17.99 64.66 C30.63 50.12, 43.28 35.58, 64.57 11.08 M17.99 64.66 C28.32 52.78, 38.65 40.9, 64.57 11.08 M28.62 64.63 C36.94 55.06, 45.26 45.49, 64.7 23.12 M28.62 64.63 C36.28 55.81, 43.95 47, 64.7 23.12 M39.25 64.59 C48.18 54.32, 57.12 44.04, 64.84 35.16 M39.25 64.59 C45.8 57.06, 52.35 49.52, 64.84 35.16 M49.88 64.56 C53.45 60.45, 57.03 56.34, 64.97 47.2 M49.88 64.56 C55.07 58.58, 60.27 52.61, 64.97 47.2 M60.51 64.53 C61.44 63.46, 62.36 62.39, 64.45 60 M60.51 64.53 C61.76 63.09, 63.01 61.65, 64.45 60 M-0.19 64.24 C-0.19 64.24, -0.19 64.24, -0.19 64.24 M-0.19 64.24 C-0.19 64.24, -0.19 64.24, -0.19 64.24 M11.85 64.1 C9.19 61.79, 6.53 59.47, -0.22 53.61 M11.85 64.1 C8.25 60.97, 4.65 57.84, -0.22 53.61 M24.65 64.63 C14.92 56.17, 5.2 47.72, -0.26 42.98 M24.65 64.63 C14.85 56.11, 5.06 47.6, -0.26 42.98 M36.69 64.49 C25.11 54.42, 13.53 44.36, -0.29 32.35 M36.69 64.49 C26.61 55.73, 16.53 46.97, -0.29 32.35 M48.73 64.36 C36.2 53.47, 23.67 42.58, -0.33 21.72 M48.73 64.36 C31.16 49.09, 13.59 33.82, -0.33 21.72 M60.77 64.23 C46.04 51.42, 31.31 38.61, -0.36 11.09 M60.77 64.23 C42.7 48.52, 24.62 32.8, -0.36 11.09 M65.26 57.53 C40.02 35.59, 14.78 13.65, 0.36 1.11 M65.26 57.53 C51.16 45.27, 37.06 33.02, 0.36 1.11 M65.23 46.9 C51.62 35.07, 38.02 23.25, 10.89 -0.33 M65.23 46.9 C54.15 37.27, 43.07 27.64, 10.89 -0.33 M65.2 36.27 C50.54 23.53, 35.89 10.8, 22.93 -0.47 M65.2 36.27 C50.5 23.5, 35.8 10.72, 22.93 -0.47 M65.16 25.64 C55.91 17.6, 46.65 9.55, 34.97 -0.6 M65.16 25.64 C58.67 20, 52.19 14.36, 34.97 -0.6 M65.13 15.01 C61.6 11.94, 58.07 8.87, 47.77 -0.08 M65.13 15.01 C59.78 10.37, 54.44 5.72, 47.77 -0.08 M65.09 4.38 C63.54 3.03, 61.99 1.69, 59.81 -0.21 M65.09 4.38 C63.36 2.88, 61.63 1.37, 59.81 -0.21" stroke="#ced4da" stroke-width="1" fill="none"></path><path d="M0 0 C23.95 0, 47.91 0, 64.46 0 M0 0 C16.52 0, 33.04 0, 64.46 0 M64.46 0 C64.46 23.73, 64.46 47.45, 64.46 64.4 M64.46 0 C64.46 19.18, 64.46 38.35, 64.46 64.4 M64.46 64.4 C49.31 64.4, 34.16 64.4, 0 64.4 M64.46 64.4 C49.39 64.4, 34.31 64.4, 0 64.4 M0 64.4 C0 38.69, 0 12.97, 0 0 M0 64.4 C0 48.7, 0 32.99, 0 0" stroke="#000000" stroke-width="2" fill="none"></path></g><g stroke-linecap="round" transform="translate(129.05874861583925 387.63667809303405) rotate(0 25.94125138416001 25.94125138416001)"><path d="M51.88 25.94 C51.88 27.44, 51.75 28.97, 51.49 30.45 C51.23 31.92, 50.83 33.4, 50.32 34.81 C49.8 36.22, 49.16 37.61, 48.41 38.91 C47.66 40.21, 46.78 41.47, 45.81 42.62 C44.85 43.77, 43.77 44.85, 42.62 45.81 C41.47 46.78, 40.21 47.66, 38.91 48.41 C37.61 49.16, 36.22 49.8, 34.81 50.32 C33.4 50.83, 31.92 51.23, 30.45 51.49 C28.97 51.75, 27.44 51.88, 25.94 51.88 C24.44 51.88, 22.92 51.75, 21.44 51.49 C19.96 51.23, 18.48 50.83, 17.07 50.32 C15.66 49.8, 14.27 49.16, 12.97 48.41 C11.67 47.66, 10.42 46.78, 9.27 45.81 C8.12 44.85, 7.03 43.77, 6.07 42.62 C5.1 41.47, 4.23 40.21, 3.48 38.91 C2.72 37.61, 2.08 36.22, 1.56 34.81 C1.05 33.4, 0.65 31.92, 0.39 30.45 C0.13 28.97, 0 27.44, 0 25.94 C0 24.44, 0.13 22.92, 0.39 21.44 C0.65 19.96, 1.05 18.48, 1.56 17.07 C2.08 15.66, 2.72 14.27, 3.48 12.97 C4.23 11.67, 5.1 10.42, 6.07 9.27 C7.03 8.12, 8.12 7.03, 9.27 6.07 C10.42 5.1, 11.67 4.23, 12.97 3.48 C14.27 2.72, 15.66 2.08, 17.07 1.56 C18.48 1.05, 19.96 0.65, 21.44 0.39 C22.92 0.13, 24.44 0, 25.94 0 C27.44 0, 28.97 0.13, 30.45 0.39 C31.92 0.65, 33.4 1.05, 34.81 1.56 C36.22 2.08, 37.61 2.72, 38.91 3.48 C40.21 4.23, 41.47 5.1, 42.62 6.07 C43.77 7.03, 44.85 8.12, 45.81 9.27 C46.78 10.42, 47.66 11.67, 48.41 12.97 C49.16 14.27, 49.8 15.66, 50.32 17.07 C50.83 18.48, 51.23 19.96, 51.49 21.44 C51.75 22.92, 51.82 25.19, 51.88 25.94 C51.95 26.69, 51.95 25.19, 51.88 25.94" stroke="none" stroke-width="0" fill="#868e96"></path><path d="M51.88 25.94 C51.88 27.44, 51.75 28.97, 51.49 30.45 C51.23 31.92, 50.83 33.4, 50.32 34.81 C49.8 36.22, 49.16 37.61, 48.41 38.91 C47.66 40.21, 46.78 41.47, 45.81 42.62 C44.85 43.77, 43.77 44.85, 42.62 45.81 C41.47 46.78, 40.21 47.66, 38.91 48.41 C37.61 49.16, 36.22 49.8, 34.81 50.32 C33.4 50.83, 31.92 51.23, 30.45 51.49 C28.97 51.75, 27.44 51.88, 25.94 51.88 C24.44 51.88, 22.92 51.75, 21.44 51.49 C19.96 51.23, 18.48 50.83, 17.07 50.32 C15.66 49.8, 14.27 49.16, 12.97 48.41 C11.67 47.66, 10.42 46.78, 9.27 45.81 C8.12 44.85, 7.03 43.77, 6.07 42.62 C5.1 41.47, 4.23 40.21, 3.48 38.91 C2.72 37.61, 2.08 36.22, 1.56 34.81 C1.05 33.4, 0.65 31.92, 0.39 30.45 C0.13 28.97, 0 27.44, 0 25.94 C0 24.44, 0.13 22.92, 0.39 21.44 C0.65 19.96, 1.05 18.48, 1.56 17.07 C2.08 15.66, 2.72 14.27, 3.48 12.97 C4.23 11.67, 5.1 10.42, 6.07 9.27 C7.03 8.12, 8.12 7.03, 9.27 6.07 C10.42 5.1, 11.67 4.23, 12.97 3.48 C14.27 2.72, 15.66 2.08, 17.07 1.56 C18.48 1.05, 19.96 0.65, 21.44 0.39 C22.92 0.13, 24.44 0, 25.94 0 C27.44 0, 28.97 0.13, 30.45 0.39 C31.92 0.65, 33.4 1.05, 34.81 1.56 C36.22 2.08, 37.61 2.72, 38.91 3.48 C40.21 4.23, 41.47 5.1, 42.62 6.07 C43.77 7.03, 44.85 8.12, 45.81 9.27 C46.78 10.42, 47.66 11.67, 48.41 12.97 C49.16 14.27, 49.8 15.66, 50.32 17.07 C50.83 18.48, 51.23 19.96, 51.49 21.44 C51.75 22.92, 51.82 25.19, 51.88 25.94 C51.95 26.69, 51.95 25.19, 51.88 25.94" stroke="#000000" stroke-width="1" fill="none"></path></g><g stroke-linecap="round"><g transform="translate(144.80651254652548 398.0447287025924) rotate(0 8.101785926389958 15.719472469046622)" fill-rule="evenodd"><path d="M0 0 C0.42 0.15, 1.82 0.44, 2.52 0.89 C3.23 1.34, 3.55 2.53, 4.22 2.71 C4.89 2.89, 5.08 2.06, 6.54 1.95 C8 1.84, 11.59 1.99, 13 2.04 C14.42 2.09, 14.42 2.41, 15.02 2.24 C15.61 2.06, 15.96 1.45, 16.58 0.99 C17.2 0.54, 18.28 -0.6, 18.74 -0.51 C19.2 -0.42, 19.25 0.88, 19.34 1.56 C19.43 2.24, 18.96 2.92, 19.28 3.57 C19.6 4.22, 20.79 4.24, 21.27 5.47 C21.74 6.69, 22.12 9.05, 22.15 10.91 C22.19 12.77, 21.91 15.29, 21.46 16.61 C21.01 17.93, 20.23 18.26, 19.44 18.82 C18.64 19.39, 17.64 19.7, 16.69 20.01 C15.73 20.32, 14.08 20.43, 13.72 20.66 C13.35 20.9, 14.22 21.01, 14.5 21.4 C14.78 21.8, 15.21 21.91, 15.39 23.04 C15.57 24.17, 15.55 26.8, 15.57 28.18 C15.6 29.55, 15.7 30.68, 15.54 31.29 C15.37 31.89, 15.95 31.71, 14.57 31.82 C13.19 31.93, 8.61 32.08, 7.24 31.95 C5.87 31.82, 6.52 31.81, 6.32 31.05 C6.13 30.29, 6.39 27.92, 6.07 27.39 C5.74 26.86, 5.13 27.75, 4.38 27.86 C3.63 27.97, 2.48 28.26, 1.58 28.04 C0.68 27.82, -0.33 27.23, -1.03 26.54 C-1.74 25.86, -2.12 24.63, -2.66 23.92 C-3.19 23.22, -3.69 22.77, -4.24 22.31 C-4.79 21.86, -6.05 21.33, -5.95 21.18 C-5.85 21.03, -4.29 21.15, -3.63 21.4 C-2.97 21.65, -2.57 22.17, -1.98 22.67 C-1.4 23.18, -0.81 23.96, -0.12 24.44 C0.57 24.92, 1.35 25.41, 2.15 25.54 C2.94 25.67, 4.03 25.44, 4.66 25.23 C5.29 25.01, 5.68 24.67, 5.9 24.25 C6.13 23.83, 5.89 23.19, 6.02 22.72 C6.15 22.24, 6.43 21.7, 6.69 21.38 C6.95 21.06, 7.96 21.02, 7.56 20.78 C7.16 20.54, 5.35 20.25, 4.28 19.93 C3.21 19.62, 1.93 19.46, 1.14 18.9 C0.35 18.34, 0.01 17.89, -0.46 16.57 C-0.92 15.25, -1.61 12.78, -1.65 10.96 C-1.7 9.15, -1.09 6.81, -0.7 5.69 C-0.32 4.57, 0.57 4.81, 0.67 4.24 C0.76 3.67, -0.01 2.98, -0.12 2.28 C-0.23 1.57, -0.02 0.38, 0 0" stroke="none" stroke-width="0" fill="#fff" fill-rule="evenodd"></path><path d="M0 0 C0.42 0.15, 1.82 0.44, 2.52 0.89 C3.23 1.34, 3.55 2.53, 4.22 2.71 C4.89 2.89, 5.08 2.06, 6.54 1.95 C8 1.84, 11.59 1.99, 13 2.04 C14.42 2.09, 14.42 2.41, 15.02 2.24 C15.61 2.06, 15.96 1.45, 16.58 0.99 C17.2 0.54, 18.28 -0.6, 18.74 -0.51 C19.2 -0.42, 19.25 0.88, 19.34 1.56 C19.43 2.24, 18.96 2.92, 19.28 3.57 C19.6 4.22, 20.79 4.24, 21.27 5.47 C21.74 6.69, 22.12 9.05, 22.15 10.91 C22.19 12.77, 21.91 15.29, 21.46 16.61 C21.01 17.93, 20.23 18.26, 19.44 18.82 C18.64 19.39, 17.64 19.7, 16.69 20.01 C15.73 20.32, 14.08 20.43, 13.72 20.66 C13.35 20.9, 14.22 21.01, 14.5 21.4 C14.78 21.8, 15.21 21.91, 15.39 23.04 C15.57 24.17, 15.55 26.8, 15.57 28.18 C15.6 29.55, 15.7 30.68, 15.54 31.29 C15.37 31.89, 15.95 31.71, 14.57 31.82 C13.19 31.93, 8.61 32.08, 7.24 31.95 C5.87 31.82, 6.52 31.81, 6.32 31.05 C6.13 30.29, 6.39 27.92, 6.07 27.39 C5.74 26.86, 5.13 27.75, 4.38 27.86 C3.63 27.97, 2.48 28.26, 1.58 28.04 C0.68 27.82, -0.33 27.23, -1.03 26.54 C-1.74 25.86, -2.12 24.63, -2.66 23.92 C-3.19 23.22, -3.69 22.77, -4.24 22.31 C-4.79 21.86, -6.05 21.33, -5.95 21.18 C-5.85 21.03, -4.29 21.15, -3.63 21.4 C-2.97 21.65, -2.57 22.17, -1.98 22.67 C-1.4 23.18, -0.81 23.96, -0.12 24.44 C0.57 24.92, 1.35 25.41, 2.15 25.54 C2.94 25.67, 4.03 25.44, 4.66 25.23 C5.29 25.01, 5.68 24.67, 5.9 24.25 C6.13 23.83, 5.89 23.19, 6.02 22.72 C6.15 22.24, 6.43 21.7, 6.69 21.38 C6.95 21.06, 7.96 21.02, 7.56 20.78 C7.16 20.54, 5.35 20.25, 4.28 19.93 C3.21 19.62, 1.93 19.46, 1.14 18.9 C0.35 18.34, 0.01 17.89, -0.46 16.57 C-0.92 15.25, -1.61 12.78, -1.65 10.96 C-1.7 9.15, -1.09 6.81, -0.7 5.69 C-0.32 4.57, 0.57 4.81, 0.67 4.24 C0.76 3.67, -0.01 2.98, -0.12 2.28 C-0.23 1.57, -0.02 0.38, 0 0 M0 0 C0.42 0.15, 1.82 0.44, 2.52 0.89 C3.23 1.34, 3.55 2.53, 4.22 2.71 C4.89 2.89, 5.08 2.06, 6.54 1.95 C8 1.84, 11.59 1.99, 13 2.04 C14.42 2.09, 14.42 2.41, 15.02 2.24 C15.61 2.06, 15.96 1.45, 16.58 0.99 C17.2 0.54, 18.28 -0.6, 18.74 -0.51 C19.2 -0.42, 19.25 0.88, 19.34 1.56 C19.43 2.24, 18.96 2.92, 19.28 3.57 C19.6 4.22, 20.79 4.24, 21.27 5.47 C21.74 6.69, 22.12 9.05, 22.15 10.91 C22.19 12.77, 21.91 15.29, 21.46 16.61 C21.01 17.93, 20.23 18.26, 19.44 18.82 C18.64 19.39, 17.64 19.7, 16.69 20.01 C15.73 20.32, 14.08 20.43, 13.72 20.66 C13.35 20.9, 14.22 21.01, 14.5 21.4 C14.78 21.8, 15.21 21.91, 15.39 23.04 C15.57 24.17, 15.55 26.8, 15.57 28.18 C15.6 29.55, 15.7 30.68, 15.54 31.29 C15.37 31.89, 15.95 31.71, 14.57 31.82 C13.19 31.93, 8.61 32.08, 7.24 31.95 C5.87 31.82, 6.52 31.81, 6.32 31.05 C6.13 30.29, 6.39 27.92, 6.07 27.39 C5.74 26.86, 5.13 27.75, 4.38 27.86 C3.63 27.97, 2.48 28.26, 1.58 28.04 C0.68 27.82, -0.33 27.23, -1.03 26.54 C-1.74 25.86, -2.12 24.63, -2.66 23.92 C-3.19 23.22, -3.69 22.77, -4.24 22.31 C-4.79 21.86, -6.05 21.33, -5.95 21.18 C-5.85 21.03, -4.29 21.15, -3.63 21.4 C-2.97 21.65, -2.57 22.17, -1.98 22.67 C-1.4 23.18, -0.81 23.96, -0.12 24.44 C0.57 24.92, 1.35 25.41, 2.15 25.54 C2.94 25.67, 4.03 25.44, 4.66 25.23 C5.29 25.01, 5.68 24.67, 5.9 24.25 C6.13 23.83, 5.89 23.19, 6.02 22.72 C6.15 22.24, 6.43 21.7, 6.69 21.38 C6.95 21.06, 7.96 21.02, 7.56 20.78 C7.16 20.54, 5.35 20.25, 4.28 19.93 C3.21 19.62, 1.93 19.46, 1.14 18.9 C0.35 18.34, 0.01 17.89, -0.46 16.57 C-0.92 15.25, -1.61 12.78, -1.65 10.96 C-1.7 9.15, -1.09 6.81, -0.7 5.69 C-0.32 4.57, 0.57 4.81, 0.67 4.24 C0.76 3.67, -0.01 2.98, -0.12 2.28 C-0.23 1.57, -0.02 0.38, 0 0" stroke="#000000" stroke-width="1" fill="none"></path></g></g><mask></mask><g transform="translate(122.5 451.2636986212437) rotate(0 32.5 12.5)"><text x="0" y="0" font-family="Virgil, Segoe UI Emoji" font-size="20px" fill="#000000" text-anchor="start" style="white-space: pre;" direction="ltr" dominant-baseline="text-before-edge">GitHub</text></g><g transform="translate(61.25 499.37446825490815) rotate(0 93.75 9.599999999999994)"><text x="93.75" y="0" font-family="Cascadia, Segoe UI Emoji" font-size="16px" fill="#1e1e1e" text-anchor="middle" style="white-space: pre;" direction="ltr" dominant-baseline="text-before-edge">The Source Code Repo</text></g><g stroke-linecap="round" transform="translate(10 10) rotate(0 145 273)"><path d="M32 0 C94.73 2.2, 159.24 2.63, 258 0 M32 0 C96.97 -2.29, 157.99 -1.17, 258 0 M258 0 C276.27 -0.51, 290.9 12.48, 290 32 M258 0 C282.27 -2.54, 288.31 10.08, 290 32 M290 32 C289.42 158.4, 288.92 282.7, 290 514 M290 32 C287.75 177.37, 288.37 322.96, 290 514 M290 514 C286.77 537.53, 277.47 543.19, 258 546 M290 514 C290 539.45, 279.33 543.94, 258 546 M258 546 C181.09 543.3, 109.19 546.85, 32 546 M258 546 C180.61 544.75, 103.3 545.65, 32 546 M32 546 C12.82 548.14, 0.5 532.06, 0 514 M32 546 C11.24 543.01, -2.02 531.03, 0 514 M0 514 C5.12 322.64, 3.22 133.87, 0 32 M0 514 C3.27 323.64, 3.64 132.66, 0 32 M0 32 C0.06 13.52, 9.75 -0.37, 32 0 M0 32 C4.28 12.47, 8.44 2.96, 32 0" stroke="#1e1e1e" stroke-width="2" fill="none"></path></g><g transform="translate(56.5625 21.799999999999997) rotate(0 98.4375 16.8)"><text x="0" y="0" font-family="Cascadia, Segoe UI Emoji" font-size="28px" fill="#1e1e1e" text-anchor="start" style="white-space: pre;" direction="ltr" dominant-baseline="text-before-edge">Hugo Project</text></g><g stroke-linecap="round"><g transform="translate(153.5625 279) rotate(0 0 43)"><path d="M0.31 -0.64 C0.08 13.54, -1.13 71.88, -1.13 86.19 M-0.98 1.64 C-0.88 16.55, 0.87 73.75, 0.98 87.83" stroke="#1e1e1e" stroke-width="2" fill="none"></path></g><g transform="translate(153.5625 279) rotate(0 0 43)"><path d="M-8.05 64.52 C-5.99 70.08, -1.71 79.93, 0.98 87.83 M-8.05 64.52 C-5.08 69.67, -3.08 75.06, 0.98 87.83" stroke="#1e1e1e" stroke-width="2" fill="none"></path></g><g transform="translate(153.5625 279) rotate(0 0 43)"><path d="M9.05 64.17 C5.62 69.89, 4.41 79.85, 0.98 87.83 M9.05 64.17 C8.01 69.25, 5.99 74.72, 0.98 87.83" stroke="#1e1e1e" stroke-width="2" fill="none"></path></g></g><mask></mask><g transform="translate(169.5625 299.20000000000005) rotate(0 37.5 9.599999999999994)"><text x="0" y="0" font-family="Cascadia, Segoe UI Emoji" font-size="16px" fill="#e03131" text-anchor="start" style="white-space: pre;" direction="ltr" dominant-baseline="text-before-edge">Git Push</text></g><g stroke-linecap="round"><g transform="translate(472.8848977221252 418.020528815014) rotate(0 -16.628687471881904 17.779904296858376)" fill-rule="evenodd"><path d="M0 0 C-0.85 0.47, -3.54 2.69, -5.12 2.81 C-6.69 2.94, -8.7 2, -9.47 0.77 C-10.23 -0.47, -8.44 -3.62, -9.72 -4.6 C-11 -5.59, -15.61 -5.8, -17.14 -5.12 C-18.68 -4.43, -17.91 -1.49, -18.93 -0.51 C-19.95 0.47, -21.87 1.07, -23.28 0.77 C-24.69 0.47, -25.67 -2.09, -27.37 -2.3 C-29.08 -2.52, -32.75 -2, -33.51 -0.51 C-34.28 0.98, -31.85 4.86, -31.98 6.65 C-32.11 8.44, -32.92 9.68, -34.28 10.23 C-35.65 10.79, -39.18 8.44, -40.16 9.98 C-41.15 11.51, -40.85 18.04, -40.16 19.44 C-39.48 20.85, -37.27 17.78, -36.07 18.42 C-34.88 19.06, -32.75 21.66, -33 23.28 C-33.26 24.9, -37.39 26.14, -37.61 28.14 C-37.82 30.14, -35.73 34.62, -34.28 35.3 C-32.83 35.99, -30.57 32.4, -28.91 32.23 C-27.25 32.06, -25.11 32.96, -24.3 34.28 C-23.49 35.6, -25.28 39.1, -24.05 40.16 C-22.81 41.23, -18.33 41.4, -16.88 40.68 C-15.43 39.95, -16.5 36.8, -15.35 35.82 C-14.2 34.83, -11.68 34.28, -9.98 34.79 C-8.27 35.3, -6.69 38.8, -5.12 38.89 C-3.54 38.97, -1.02 36.75, -0.51 35.3 C0 33.85, -2.13 31.72, -2.05 30.19 C-1.96 28.65, -1.49 26.73, 0 26.09 C1.49 25.45, 5.76 27.71, 6.91 26.35 C8.06 24.99, 7.85 19.53, 6.91 17.91 C5.97 16.29, 2.35 17.69, 1.28 16.63 C0.21 15.56, 0 13.22, 0.51 11.51 C1.02 9.81, 4.43 8.31, 4.35 6.4 C4.26 4.48, 0.72 1.07, 0 0" stroke="none" stroke-width="0" fill="#1e1e1e" fill-rule="evenodd"></path><path d="M0 0 C-0.85 0.47, -3.54 2.69, -5.12 2.81 C-6.69 2.94, -8.7 2, -9.47 0.77 C-10.23 -0.47, -8.44 -3.62, -9.72 -4.6 C-11 -5.59, -15.61 -5.8, -17.14 -5.12 C-18.68 -4.43, -17.91 -1.49, -18.93 -0.51 C-19.95 0.47, -21.87 1.07, -23.28 0.77 C-24.69 0.47, -25.67 -2.09, -27.37 -2.3 C-29.08 -2.52, -32.75 -2, -33.51 -0.51 C-34.28 0.98, -31.85 4.86, -31.98 6.65 C-32.11 8.44, -32.92 9.68, -34.28 10.23 C-35.65 10.79, -39.18 8.44, -40.16 9.98 C-41.15 11.51, -40.85 18.04, -40.16 19.44 C-39.48 20.85, -37.27 17.78, -36.07 18.42 C-34.88 19.06, -32.75 21.66, -33 23.28 C-33.26 24.9, -37.39 26.14, -37.61 28.14 C-37.82 30.14, -35.73 34.62, -34.28 35.3 C-32.83 35.99, -30.57 32.4, -28.91 32.23 C-27.25 32.06, -25.11 32.96, -24.3 34.28 C-23.49 35.6, -25.28 39.1, -24.05 40.16 C-22.81 41.23, -18.33 41.4, -16.88 40.68 C-15.43 39.95, -16.5 36.8, -15.35 35.82 C-14.2 34.83, -11.68 34.28, -9.98 34.79 C-8.27 35.3, -6.69 38.8, -5.12 38.89 C-3.54 38.97, -1.02 36.75, -0.51 35.3 C0 33.85, -2.13 31.72, -2.05 30.19 C-1.96 28.65, -1.49 26.73, 0 26.09 C1.49 25.45, 5.76 27.71, 6.91 26.35 C8.06 24.99, 7.85 19.53, 6.91 17.91 C5.97 16.29, 2.35 17.69, 1.28 16.63 C0.21 15.56, 0 13.22, 0.51 11.51 C1.02 9.81, 4.43 8.31, 4.35 6.4 C4.26 4.48, 0.72 1.07, 0 0 M0 0 C-0.85 0.47, -3.54 2.69, -5.12 2.81 C-6.69 2.94, -8.7 2, -9.47 0.77 C-10.23 -0.47, -8.44 -3.62, -9.72 -4.6 C-11 -5.59, -15.61 -5.8, -17.14 -5.12 C-18.68 -4.43, -17.91 -1.49, -18.93 -0.51 C-19.95 0.47, -21.87 1.07, -23.28 0.77 C-24.69 0.47, -25.67 -2.09, -27.37 -2.3 C-29.08 -2.52, -32.75 -2, -33.51 -0.51 C-34.28 0.98, -31.85 4.86, -31.98 6.65 C-32.11 8.44, -32.92 9.68, -34.28 10.23 C-35.65 10.79, -39.18 8.44, -40.16 9.98 C-41.15 11.51, -40.85 18.04, -40.16 19.44 C-39.48 20.85, -37.27 17.78, -36.07 18.42 C-34.88 19.06, -32.75 21.66, -33 23.28 C-33.26 24.9, -37.39 26.14, -37.61 28.14 C-37.82 30.14, -35.73 34.62, -34.28 35.3 C-32.83 35.99, -30.57 32.4, -28.91 32.23 C-27.25 32.06, -25.11 32.96, -24.3 34.28 C-23.49 35.6, -25.28 39.1, -24.05 40.16 C-22.81 41.23, -18.33 41.4, -16.88 40.68 C-15.43 39.95, -16.5 36.8, -15.35 35.82 C-14.2 34.83, -11.68 34.28, -9.98 34.79 C-8.27 35.3, -6.69 38.8, -5.12 38.89 C-3.54 38.97, -1.02 36.75, -0.51 35.3 C0 33.85, -2.13 31.72, -2.05 30.19 C-1.96 28.65, -1.49 26.73, 0 26.09 C1.49 25.45, 5.76 27.71, 6.91 26.35 C8.06 24.99, 7.85 19.53, 6.91 17.91 C5.97 16.29, 2.35 17.69, 1.28 16.63 C0.21 15.56, 0 13.22, 0.51 11.51 C1.02 9.81, 4.43 8.31, 4.35 6.4 C4.26 4.48, 0.72 1.07, 0 0" stroke="#1e1e1e" stroke-width="4" fill="none"></path></g></g><mask></mask><g stroke-linecap="round"><g transform="translate(390.55011522834974 423.39009949548597) rotate(0 14.070427860823202 17.524078335752506)" fill-rule="evenodd"><path d="M0 0 C0.68 0.38, 2.73 2.05, 4.09 2.3 C5.46 2.56, 7.38 2.56, 8.19 1.53 C9 0.51, 7.63 -2.81, 8.95 -3.84 C10.28 -4.86, 14.67 -5.37, 16.12 -4.6 C17.57 -3.84, 16.76 -0.34, 17.65 0.77 C18.55 1.88, 20.25 2.22, 21.49 2.05 C22.73 1.88, 23.75 -0.47, 25.07 -0.26 C26.39 -0.04, 29.12 1.96, 29.42 3.33 C29.72 4.69, 26.86 6.44, 26.86 7.93 C26.86 9.42, 28.06 11.34, 29.42 12.28 C30.78 13.22, 33.98 12.41, 35.05 13.56 C36.11 14.71, 36.33 17.95, 35.82 19.19 C35.3 20.42, 33 20.21, 31.98 20.98 C30.95 21.75, 29.68 22.34, 29.68 23.79 C29.68 25.24, 32.23 27.97, 31.98 29.68 C31.72 31.38, 29.55 33.73, 28.14 34.02 C26.73 34.32, 24.94 31.64, 23.54 31.47 C22.13 31.3, 20.51 31.85, 19.7 33 C18.89 34.15, 19.83 37.27, 18.68 38.37 C17.52 39.48, 14.16 40.25, 12.79 39.65 C11.43 39.06, 11.55 35.9, 10.49 34.79 C9.42 33.68, 7.89 32.83, 6.4 33 C4.9 33.17, 3.16 36.11, 1.53 35.82 C-0.09 35.52, -2.9 32.7, -3.33 31.21 C-3.75 29.72, -1.19 28.18, -1.02 26.86 C-0.85 25.54, -1.28 24.13, -2.3 23.28 C-3.33 22.43, -6.27 23.02, -7.16 21.75 C-8.06 20.47, -8.23 16.93, -7.67 15.61 C-7.12 14.28, -4.69 14.58, -3.84 13.81 C-2.98 13.05, -2.47 12.24, -2.56 11 C-2.64 9.76, -4.78 8.23, -4.35 6.4 C-3.92 4.56, -0.72 1.07, 0 0" stroke="none" stroke-width="0" fill="#1e1e1e" fill-rule="evenodd"></path><path d="M0 0 C0.68 0.38, 2.73 2.05, 4.09 2.3 C5.46 2.56, 7.38 2.56, 8.19 1.53 C9 0.51, 7.63 -2.81, 8.95 -3.84 C10.28 -4.86, 14.67 -5.37, 16.12 -4.6 C17.57 -3.84, 16.76 -0.34, 17.65 0.77 C18.55 1.88, 20.25 2.22, 21.49 2.05 C22.73 1.88, 23.75 -0.47, 25.07 -0.26 C26.39 -0.04, 29.12 1.96, 29.42 3.33 C29.72 4.69, 26.86 6.44, 26.86 7.93 C26.86 9.42, 28.06 11.34, 29.42 12.28 C30.78 13.22, 33.98 12.41, 35.05 13.56 C36.11 14.71, 36.33 17.95, 35.82 19.19 C35.3 20.42, 33 20.21, 31.98 20.98 C30.95 21.75, 29.68 22.34, 29.68 23.79 C29.68 25.24, 32.23 27.97, 31.98 29.68 C31.72 31.38, 29.55 33.73, 28.14 34.02 C26.73 34.32, 24.94 31.64, 23.54 31.47 C22.13 31.3, 20.51 31.85, 19.7 33 C18.89 34.15, 19.83 37.27, 18.68 38.37 C17.52 39.48, 14.16 40.25, 12.79 39.65 C11.43 39.06, 11.55 35.9, 10.49 34.79 C9.42 33.68, 7.89 32.83, 6.4 33 C4.9 33.17, 3.16 36.11, 1.53 35.82 C-0.09 35.52, -2.9 32.7, -3.33 31.21 C-3.75 29.72, -1.19 28.18, -1.02 26.86 C-0.85 25.54, -1.28 24.13, -2.3 23.28 C-3.33 22.43, -6.27 23.02, -7.16 21.75 C-8.06 20.47, -8.23 16.93, -7.67 15.61 C-7.12 14.28, -4.69 14.58, -3.84 13.81 C-2.98 13.05, -2.47 12.24, -2.56 11 C-2.64 9.76, -4.78 8.23, -4.35 6.4 C-3.92 4.56, -0.72 1.07, 0 0 M0 0 C0.68 0.38, 2.73 2.05, 4.09 2.3 C5.46 2.56, 7.38 2.56, 8.19 1.53 C9 0.51, 7.63 -2.81, 8.95 -3.84 C10.28 -4.86, 14.67 -5.37, 16.12 -4.6 C17.57 -3.84, 16.76 -0.34, 17.65 0.77 C18.55 1.88, 20.25 2.22, 21.49 2.05 C22.73 1.88, 23.75 -0.47, 25.07 -0.26 C26.39 -0.04, 29.12 1.96, 29.42 3.33 C29.72 4.69, 26.86 6.44, 26.86 7.93 C26.86 9.42, 28.06 11.34, 29.42 12.28 C30.78 13.22, 33.98 12.41, 35.05 13.56 C36.11 14.71, 36.33 17.95, 35.82 19.19 C35.3 20.42, 33 20.21, 31.98 20.98 C30.95 21.75, 29.68 22.34, 29.68 23.79 C29.68 25.24, 32.23 27.97, 31.98 29.68 C31.72 31.38, 29.55 33.73, 28.14 34.02 C26.73 34.32, 24.94 31.64, 23.54 31.47 C22.13 31.3, 20.51 31.85, 19.7 33 C18.89 34.15, 19.83 37.27, 18.68 38.37 C17.52 39.48, 14.16 40.25, 12.79 39.65 C11.43 39.06, 11.55 35.9, 10.49 34.79 C9.42 33.68, 7.89 32.83, 6.4 33 C4.9 33.17, 3.16 36.11, 1.53 35.82 C-0.09 35.52, -2.9 32.7, -3.33 31.21 C-3.75 29.72, -1.19 28.18, -1.02 26.86 C-0.85 25.54, -1.28 24.13, -2.3 23.28 C-3.33 22.43, -6.27 23.02, -7.16 21.75 C-8.06 20.47, -8.23 16.93, -7.67 15.61 C-7.12 14.28, -4.69 14.58, -3.84 13.81 C-2.98 13.05, -2.47 12.24, -2.56 11 C-2.64 9.76, -4.78 8.23, -4.35 6.4 C-3.92 4.56, -0.72 1.07, 0 0" stroke="#1e1e1e" stroke-width="4" fill="none"></path></g></g><mask></mask><g stroke-linecap="round"><g transform="translate(436.45306125844775 406.1396611092463) rotate(0 -11.895907191423191 -8.058517774835053)" fill-rule="evenodd"><path d="M0 0 C0.47 0.13, 1.96 1.28, 2.81 0.77 C3.67 0.26, 5.12 -2, 5.12 -3.07 C5.12 -4.14, 3.24 -4.31, 2.81 -5.63 C2.39 -6.95, 2.05 -9.85, 2.56 -11 C3.07 -12.15, 5.63 -11.47, 5.88 -12.54 C6.14 -13.6, 5.03 -16.59, 4.09 -17.4 C3.16 -18.21, 1.28 -17.1, 0.26 -17.4 C-0.77 -17.69, -1.58 -18.04, -2.05 -19.19 C-2.52 -20.34, -1.58 -23.28, -2.56 -24.3 C-3.54 -25.33, -6.74 -25.75, -7.93 -25.33 C-9.12 -24.9, -8.87 -22.3, -9.72 -21.75 C-10.57 -21.19, -11.9 -21.36, -13.05 -22 C-14.2 -22.64, -15.31 -25.28, -16.63 -25.58 C-17.95 -25.88, -20.25 -24.6, -20.98 -23.79 C-21.7 -22.98, -20.68 -21.83, -20.98 -20.72 C-21.28 -19.61, -21.66 -17.52, -22.77 -17.14 C-23.88 -16.76, -26.48 -19.23, -27.63 -18.42 C-28.78 -17.61, -29.93 -13.77, -29.68 -12.28 C-29.42 -10.79, -26.78 -10.4, -26.09 -9.47 C-25.41 -8.53, -24.99 -7.63, -25.58 -6.65 C-26.18 -5.67, -29.25 -4.99, -29.68 -3.58 C-30.1 -2.17, -29.21 1.02, -28.14 1.79 C-27.07 2.56, -24.56 0.94, -23.28 1.02 C-22 1.11, -20.85 1.24, -20.47 2.3 C-20.08 3.37, -21.66 6.27, -20.98 7.42 C-20.3 8.57, -17.78 9.47, -16.37 9.21 C-14.97 8.95, -13.64 6.44, -12.54 5.88 C-11.43 5.33, -10.57 5.29, -9.72 5.88 C-8.87 6.48, -8.7 9.12, -7.42 9.47 C-6.14 9.81, -2.73 8.87, -2.05 7.93 C-1.36 6.99, -3.67 5.16, -3.33 3.84 C-2.98 2.52, -0.55 0.64, 0 0" stroke="none" stroke-width="0" fill="#1e1e1e" fill-rule="evenodd"></path><path d="M0 0 C0.47 0.13, 1.96 1.28, 2.81 0.77 C3.67 0.26, 5.12 -2, 5.12 -3.07 C5.12 -4.14, 3.24 -4.31, 2.81 -5.63 C2.39 -6.95, 2.05 -9.85, 2.56 -11 C3.07 -12.15, 5.63 -11.47, 5.88 -12.54 C6.14 -13.6, 5.03 -16.59, 4.09 -17.4 C3.16 -18.21, 1.28 -17.1, 0.26 -17.4 C-0.77 -17.69, -1.58 -18.04, -2.05 -19.19 C-2.52 -20.34, -1.58 -23.28, -2.56 -24.3 C-3.54 -25.33, -6.74 -25.75, -7.93 -25.33 C-9.12 -24.9, -8.87 -22.3, -9.72 -21.75 C-10.57 -21.19, -11.9 -21.36, -13.05 -22 C-14.2 -22.64, -15.31 -25.28, -16.63 -25.58 C-17.95 -25.88, -20.25 -24.6, -20.98 -23.79 C-21.7 -22.98, -20.68 -21.83, -20.98 -20.72 C-21.28 -19.61, -21.66 -17.52, -22.77 -17.14 C-23.88 -16.76, -26.48 -19.23, -27.63 -18.42 C-28.78 -17.61, -29.93 -13.77, -29.68 -12.28 C-29.42 -10.79, -26.78 -10.4, -26.09 -9.47 C-25.41 -8.53, -24.99 -7.63, -25.58 -6.65 C-26.18 -5.67, -29.25 -4.99, -29.68 -3.58 C-30.1 -2.17, -29.21 1.02, -28.14 1.79 C-27.07 2.56, -24.56 0.94, -23.28 1.02 C-22 1.11, -20.85 1.24, -20.47 2.3 C-20.08 3.37, -21.66 6.27, -20.98 7.42 C-20.3 8.57, -17.78 9.47, -16.37 9.21 C-14.97 8.95, -13.64 6.44, -12.54 5.88 C-11.43 5.33, -10.57 5.29, -9.72 5.88 C-8.87 6.48, -8.7 9.12, -7.42 9.47 C-6.14 9.81, -2.73 8.87, -2.05 7.93 C-1.36 6.99, -3.67 5.16, -3.33 3.84 C-2.98 2.52, -0.55 0.64, 0 0 M0 0 C0.47 0.13, 1.96 1.28, 2.81 0.77 C3.67 0.26, 5.12 -2, 5.12 -3.07 C5.12 -4.14, 3.24 -4.31, 2.81 -5.63 C2.39 -6.95, 2.05 -9.85, 2.56 -11 C3.07 -12.15, 5.63 -11.47, 5.88 -12.54 C6.14 -13.6, 5.03 -16.59, 4.09 -17.4 C3.16 -18.21, 1.28 -17.1, 0.26 -17.4 C-0.77 -17.69, -1.58 -18.04, -2.05 -19.19 C-2.52 -20.34, -1.58 -23.28, -2.56 -24.3 C-3.54 -25.33, -6.74 -25.75, -7.93 -25.33 C-9.12 -24.9, -8.87 -22.3, -9.72 -21.75 C-10.57 -21.19, -11.9 -21.36, -13.05 -22 C-14.2 -22.64, -15.31 -25.28, -16.63 -25.58 C-17.95 -25.88, -20.25 -24.6, -20.98 -23.79 C-21.7 -22.98, -20.68 -21.83, -20.98 -20.72 C-21.28 -19.61, -21.66 -17.52, -22.77 -17.14 C-23.88 -16.76, -26.48 -19.23, -27.63 -18.42 C-28.78 -17.61, -29.93 -13.77, -29.68 -12.28 C-29.42 -10.79, -26.78 -10.4, -26.09 -9.47 C-25.41 -8.53, -24.99 -7.63, -25.58 -6.65 C-26.18 -5.67, -29.25 -4.99, -29.68 -3.58 C-30.1 -2.17, -29.21 1.02, -28.14 1.79 C-27.07 2.56, -24.56 0.94, -23.28 1.02 C-22 1.11, -20.85 1.24, -20.47 2.3 C-20.08 3.37, -21.66 6.27, -20.98 7.42 C-20.3 8.57, -17.78 9.47, -16.37 9.21 C-14.97 8.95, -13.64 6.44, -12.54 5.88 C-11.43 5.33, -10.57 5.29, -9.72 5.88 C-8.87 6.48, -8.7 9.12, -7.42 9.47 C-6.14 9.81, -2.73 8.87, -2.05 7.93 C-1.36 6.99, -3.67 5.16, -3.33 3.84 C-2.98 2.52, -0.55 0.64, 0 0" stroke="#1e1e1e" stroke-width="4" fill="none"></path></g></g><mask></mask><g stroke-linecap="round" transform="translate(393.72180224551283 431.06487832866003) rotate(0 9.97721248312908 9.59347354147036)"><path d="M19.95 9.59 C19.95 10.15, 19.9 10.71, 19.8 11.26 C19.7 11.81, 19.55 12.35, 19.35 12.87 C19.16 13.4, 18.91 13.91, 18.62 14.39 C18.33 14.87, 17.99 15.33, 17.62 15.76 C17.25 16.19, 16.83 16.59, 16.39 16.94 C15.95 17.3, 15.47 17.62, 14.97 17.9 C14.47 18.18, 13.93 18.42, 13.39 18.61 C12.85 18.8, 12.28 18.94, 11.71 19.04 C11.14 19.14, 10.55 19.19, 9.98 19.19 C9.4 19.19, 8.81 19.14, 8.24 19.04 C7.68 18.94, 7.11 18.8, 6.56 18.61 C6.02 18.42, 5.49 18.18, 4.99 17.9 C4.49 17.62, 4.01 17.3, 3.56 16.94 C3.12 16.59, 2.71 16.19, 2.33 15.76 C1.96 15.33, 1.63 14.87, 1.34 14.39 C1.05 13.91, 0.8 13.4, 0.6 12.87 C0.4 12.35, 0.25 11.81, 0.15 11.26 C0.05 10.71, 0 10.15, 0 9.59 C0 9.04, 0.05 8.47, 0.15 7.93 C0.25 7.38, 0.4 6.83, 0.6 6.31 C0.8 5.79, 1.05 5.28, 1.34 4.8 C1.63 4.32, 1.96 3.85, 2.33 3.43 C2.71 3, 3.12 2.6, 3.56 2.24 C4.01 1.89, 4.49 1.56, 4.99 1.29 C5.49 1.01, 6.02 0.77, 6.56 0.58 C7.11 0.39, 7.68 0.24, 8.24 0.15 C8.81 0.05, 9.4 0, 9.98 0 C10.55 0, 11.14 0.05, 11.71 0.15 C12.28 0.24, 12.85 0.39, 13.39 0.58 C13.93 0.77, 14.47 1.01, 14.97 1.29 C15.47 1.56, 15.95 1.89, 16.39 2.24 C16.83 2.6, 17.25 3, 17.62 3.43 C17.99 3.85, 18.33 4.32, 18.62 4.8 C18.91 5.28, 19.16 5.79, 19.35 6.31 C19.55 6.83, 19.7 7.38, 19.8 7.93 C19.9 8.47, 19.93 9.32, 19.95 9.59 C19.98 9.87, 19.98 9.32, 19.95 9.59" stroke="none" stroke-width="0" fill="#ffffff"></path><path d="M19.95 9.59 C19.95 10.15, 19.9 10.71, 19.8 11.26 C19.7 11.81, 19.55 12.35, 19.35 12.87 C19.16 13.4, 18.91 13.91, 18.62 14.39 C18.33 14.87, 17.99 15.33, 17.62 15.76 C17.25 16.19, 16.83 16.59, 16.39 16.94 C15.95 17.3, 15.47 17.62, 14.97 17.9 C14.47 18.18, 13.93 18.42, 13.39 18.61 C12.85 18.8, 12.28 18.94, 11.71 19.04 C11.14 19.14, 10.55 19.19, 9.98 19.19 C9.4 19.19, 8.81 19.14, 8.24 19.04 C7.68 18.94, 7.11 18.8, 6.56 18.61 C6.02 18.42, 5.49 18.18, 4.99 17.9 C4.49 17.62, 4.01 17.3, 3.56 16.94 C3.12 16.59, 2.71 16.19, 2.33 15.76 C1.96 15.33, 1.63 14.87, 1.34 14.39 C1.05 13.91, 0.8 13.4, 0.6 12.87 C0.4 12.35, 0.25 11.81, 0.15 11.26 C0.05 10.71, 0 10.15, 0 9.59 C0 9.04, 0.05 8.47, 0.15 7.93 C0.25 7.38, 0.4 6.83, 0.6 6.31 C0.8 5.79, 1.05 5.28, 1.34 4.8 C1.63 4.32, 1.96 3.85, 2.33 3.43 C2.71 3, 3.12 2.6, 3.56 2.24 C4.01 1.89, 4.49 1.56, 4.99 1.29 C5.49 1.01, 6.02 0.77, 6.56 0.58 C7.11 0.39, 7.68 0.24, 8.24 0.15 C8.81 0.05, 9.4 0, 9.98 0 C10.55 0, 11.14 0.05, 11.71 0.15 C12.28 0.24, 12.85 0.39, 13.39 0.58 C13.93 0.77, 14.47 1.01, 14.97 1.29 C15.47 1.56, 15.95 1.89, 16.39 2.24 C16.83 2.6, 17.25 3, 17.62 3.43 C17.99 3.85, 18.33 4.32, 18.62 4.8 C18.91 5.28, 19.16 5.79, 19.35 6.31 C19.55 6.83, 19.7 7.38, 19.8 7.93 C19.9 8.47, 19.93 9.32, 19.95 9.59 C19.98 9.87, 19.98 9.32, 19.95 9.59" stroke="#1e1e1e" stroke-width="4" fill="none"></path></g><g stroke-linecap="round" transform="translate(444.6917670071572 424.1342143848964) rotate(0 10.744690366446747 11.12842930810561)"><path d="M21.49 11.13 C21.49 11.77, 21.43 12.43, 21.33 13.06 C21.22 13.7, 21.05 14.33, 20.84 14.93 C20.63 15.54, 20.36 16.13, 20.05 16.69 C19.74 17.25, 19.38 17.79, 18.98 18.28 C18.58 18.78, 18.13 19.24, 17.65 19.65 C17.17 20.07, 16.66 20.44, 16.12 20.77 C15.58 21.09, 15 21.37, 14.42 21.59 C13.84 21.81, 13.22 21.98, 12.61 22.09 C12 22.2, 11.37 22.26, 10.74 22.26 C10.12 22.26, 9.49 22.2, 8.88 22.09 C8.27 21.98, 7.65 21.81, 7.07 21.59 C6.49 21.37, 5.91 21.09, 5.37 20.77 C4.83 20.44, 4.31 20.07, 3.84 19.65 C3.36 19.24, 2.91 18.78, 2.51 18.28 C2.11 17.79, 1.75 17.25, 1.44 16.69 C1.13 16.13, 0.86 15.54, 0.65 14.93 C0.44 14.33, 0.27 13.7, 0.16 13.06 C0.06 12.43, 0 11.77, 0 11.13 C0 10.48, 0.06 9.83, 0.16 9.2 C0.27 8.56, 0.44 7.93, 0.65 7.32 C0.86 6.72, 1.13 6.12, 1.44 5.56 C1.75 5.01, 2.11 4.47, 2.51 3.98 C2.91 3.48, 3.36 3.02, 3.84 2.6 C4.31 2.19, 4.83 1.81, 5.37 1.49 C5.91 1.17, 6.49 0.89, 7.07 0.67 C7.65 0.45, 8.27 0.28, 8.88 0.17 C9.49 0.06, 10.12 0, 10.74 0 C11.37 0, 12 0.06, 12.61 0.17 C13.22 0.28, 13.84 0.45, 14.42 0.67 C15 0.89, 15.58 1.17, 16.12 1.49 C16.66 1.81, 17.17 2.19, 17.65 2.6 C18.13 3.02, 18.58 3.48, 18.98 3.98 C19.38 4.47, 19.74 5.01, 20.05 5.56 C20.36 6.12, 20.63 6.72, 20.84 7.32 C21.05 7.93, 21.22 8.56, 21.33 9.2 C21.43 9.83, 21.46 10.81, 21.49 11.13 C21.52 11.45, 21.52 10.81, 21.49 11.13" stroke="none" stroke-width="0" fill="#ffffff"></path><path d="M21.49 11.13 C21.49 11.77, 21.43 12.43, 21.33 13.06 C21.22 13.7, 21.05 14.33, 20.84 14.93 C20.63 15.54, 20.36 16.13, 20.05 16.69 C19.74 17.25, 19.38 17.79, 18.98 18.28 C18.58 18.78, 18.13 19.24, 17.65 19.65 C17.17 20.07, 16.66 20.44, 16.12 20.77 C15.58 21.09, 15 21.37, 14.42 21.59 C13.84 21.81, 13.22 21.98, 12.61 22.09 C12 22.2, 11.37 22.26, 10.74 22.26 C10.12 22.26, 9.49 22.2, 8.88 22.09 C8.27 21.98, 7.65 21.81, 7.07 21.59 C6.49 21.37, 5.91 21.09, 5.37 20.77 C4.83 20.44, 4.31 20.07, 3.84 19.65 C3.36 19.24, 2.91 18.78, 2.51 18.28 C2.11 17.79, 1.75 17.25, 1.44 16.69 C1.13 16.13, 0.86 15.54, 0.65 14.93 C0.44 14.33, 0.27 13.7, 0.16 13.06 C0.06 12.43, 0 11.77, 0 11.13 C0 10.48, 0.06 9.83, 0.16 9.2 C0.27 8.56, 0.44 7.93, 0.65 7.32 C0.86 6.72, 1.13 6.12, 1.44 5.56 C1.75 5.01, 2.11 4.47, 2.51 3.98 C2.91 3.48, 3.36 3.02, 3.84 2.6 C4.31 2.19, 4.83 1.81, 5.37 1.49 C5.91 1.17, 6.49 0.89, 7.07 0.67 C7.65 0.45, 8.27 0.28, 8.88 0.17 C9.49 0.06, 10.12 0, 10.74 0 C11.37 0, 12 0.06, 12.61 0.17 C13.22 0.28, 13.84 0.45, 14.42 0.67 C15 0.89, 15.58 1.17, 16.12 1.49 C16.66 1.81, 17.17 2.19, 17.65 2.6 C18.13 3.02, 18.58 3.48, 18.98 3.98 C19.38 4.47, 19.74 5.01, 20.05 5.56 C20.36 6.12, 20.63 6.72, 20.84 7.32 C21.05 7.93, 21.22 8.56, 21.33 9.2 C21.43 9.83, 21.46 10.81, 21.49 11.13 C21.52 11.45, 21.52 10.81, 21.49 11.13" stroke="#1e1e1e" stroke-width="4" fill="none"></path></g><g stroke-linecap="round" transform="translate(415.5771079316575 388.2579813284941) rotate(0 8.698082677599785 9.33764758036449)"><path d="M17.4 9.34 C17.4 9.88, 17.35 10.43, 17.26 10.96 C17.18 11.49, 17.04 12.02, 16.87 12.53 C16.7 13.04, 16.48 13.54, 16.23 14.01 C15.98 14.47, 15.68 14.93, 15.36 15.34 C15.04 15.75, 14.67 16.14, 14.29 16.49 C13.9 16.84, 13.48 17.15, 13.05 17.42 C12.61 17.69, 12.15 17.93, 11.67 18.11 C11.2 18.3, 10.7 18.44, 10.21 18.53 C9.71 18.63, 9.2 18.68, 8.7 18.68 C8.19 18.68, 7.68 18.63, 7.19 18.53 C6.69 18.44, 6.2 18.3, 5.72 18.11 C5.25 17.93, 4.79 17.69, 4.35 17.42 C3.91 17.15, 3.49 16.84, 3.11 16.49 C2.72 16.14, 2.36 15.75, 2.03 15.34 C1.71 14.93, 1.42 14.47, 1.17 14.01 C0.91 13.54, 0.7 13.04, 0.52 12.53 C0.35 12.02, 0.22 11.49, 0.13 10.96 C0.04 10.43, 0 9.88, 0 9.34 C0 8.8, 0.04 8.25, 0.13 7.72 C0.22 7.18, 0.35 6.65, 0.52 6.14 C0.7 5.64, 0.91 5.14, 1.17 4.67 C1.42 4.2, 1.71 3.75, 2.03 3.34 C2.36 2.92, 2.72 2.53, 3.11 2.18 C3.49 1.84, 3.91 1.52, 4.35 1.25 C4.79 0.98, 5.25 0.75, 5.72 0.56 C6.2 0.38, 6.69 0.24, 7.19 0.14 C7.68 0.05, 8.19 0, 8.7 0 C9.2 0, 9.71 0.05, 10.21 0.14 C10.7 0.24, 11.2 0.38, 11.67 0.56 C12.15 0.75, 12.61 0.98, 13.05 1.25 C13.48 1.52, 13.9 1.84, 14.29 2.18 C14.67 2.53, 15.04 2.92, 15.36 3.34 C15.68 3.75, 15.98 4.2, 16.23 4.67 C16.48 5.14, 16.7 5.64, 16.87 6.14 C17.04 6.65, 17.18 7.18, 17.26 7.72 C17.35 8.25, 17.37 9.07, 17.4 9.34 C17.42 9.61, 17.42 9.07, 17.4 9.34" stroke="none" stroke-width="0" fill="#ffffff"></path><path d="M17.4 9.34 C17.4 9.88, 17.35 10.43, 17.26 10.96 C17.18 11.49, 17.04 12.02, 16.87 12.53 C16.7 13.04, 16.48 13.54, 16.23 14.01 C15.98 14.47, 15.68 14.93, 15.36 15.34 C15.04 15.75, 14.67 16.14, 14.29 16.49 C13.9 16.84, 13.48 17.15, 13.05 17.42 C12.61 17.69, 12.15 17.93, 11.67 18.11 C11.2 18.3, 10.7 18.44, 10.21 18.53 C9.71 18.63, 9.2 18.68, 8.7 18.68 C8.19 18.68, 7.68 18.63, 7.19 18.53 C6.69 18.44, 6.2 18.3, 5.72 18.11 C5.25 17.93, 4.79 17.69, 4.35 17.42 C3.91 17.15, 3.49 16.84, 3.11 16.49 C2.72 16.14, 2.36 15.75, 2.03 15.34 C1.71 14.93, 1.42 14.47, 1.17 14.01 C0.91 13.54, 0.7 13.04, 0.52 12.53 C0.35 12.02, 0.22 11.49, 0.13 10.96 C0.04 10.43, 0 9.88, 0 9.34 C0 8.8, 0.04 8.25, 0.13 7.72 C0.22 7.18, 0.35 6.65, 0.52 6.14 C0.7 5.64, 0.91 5.14, 1.17 4.67 C1.42 4.2, 1.71 3.75, 2.03 3.34 C2.36 2.92, 2.72 2.53, 3.11 2.18 C3.49 1.84, 3.91 1.52, 4.35 1.25 C4.79 0.98, 5.25 0.75, 5.72 0.56 C6.2 0.38, 6.69 0.24, 7.19 0.14 C7.68 0.05, 8.19 0, 8.7 0 C9.2 0, 9.71 0.05, 10.21 0.14 C10.7 0.24, 11.2 0.38, 11.67 0.56 C12.15 0.75, 12.61 0.98, 13.05 1.25 C13.48 1.52, 13.9 1.84, 14.29 2.18 C14.67 2.53, 15.04 2.92, 15.36 3.34 C15.68 3.75, 15.98 4.2, 16.23 4.67 C16.48 5.14, 16.7 5.64, 16.87 6.14 C17.04 6.65, 17.18 7.18, 17.26 7.72 C17.35 8.25, 17.37 9.07, 17.4 9.34 C17.42 9.61, 17.42 9.07, 17.4 9.34" stroke="#1e1e1e" stroke-width="4" fill="none"></path></g><g transform="translate(496.56756490323517 383.4820446936226) rotate(0 75 38.400000000000006)"><text x="0" y="0" font-family="Cascadia, Segoe UI Emoji" font-size="16px" fill="#1e1e1e" text-anchor="start" style="white-space: pre;" direction="ltr" dominant-baseline="text-before-edge">configure env...</text><text x="0" y="19.2" font-family="Cascadia, Segoe UI Emoji" font-size="16px" fill="#1e1e1e" text-anchor="start" style="white-space: pre;" direction="ltr" dominant-baseline="text-before-edge">setup Hugo...</text><text x="0" y="38.4" font-family="Cascadia, Segoe UI Emoji" font-size="16px" fill="#1e1e1e" text-anchor="start" style="white-space: pre;" direction="ltr" dominant-baseline="text-before-edge">build project...</text><text x="0" y="57.599999999999994" font-family="Cascadia, Segoe UI Emoji" font-size="16px" fill="#1e1e1e" text-anchor="start" style="white-space: pre;" direction="ltr" dominant-baseline="text-before-edge">deploy...</text></g><g transform="translate(477.0625 500.7883425959229) rotate(0 37.5 9.599999999999994)"><text x="37.5" y="0" font-family="Cascadia, Segoe UI Emoji" font-size="16px" fill="#1e1e1e" text-anchor="middle" style="white-space: pre;" direction="ltr" dominant-baseline="text-before-edge">Workflow</text></g><g stroke-linecap="round" transform="translate(326.5625 225) rotate(0 188 162.5)"><path d="M32 0 C129.4 -1.62, 224.03 -0.37, 344 0 M32 0 C121.88 1.02, 212 1.54, 344 0 M344 0 C366.14 -0.43, 377.21 11.57, 376 32 M344 0 C364.1 -1.53, 375.27 12.17, 376 32 M376 32 C374.39 102.43, 374.16 174.82, 376 293 M376 32 C376.45 85.21, 377.02 138.57, 376 293 M376 293 C375.48 314.8, 366.2 326.2, 344 325 M376 293 C373.71 312.87, 365.1 325.99, 344 325 M344 325 C266.74 324.25, 191.03 326.51, 32 325 M344 325 C252.9 324.52, 163.39 324.04, 32 325 M32 325 C12.41 326.62, 0.24 312.73, 0 293 M32 325 C11.93 324.73, -0.63 312.24, 0 293 M0 293 C0.11 234.63, 2.57 179.05, 0 32 M0 293 C0.22 233.13, 0.75 172.77, 0 32 M0 32 C-0.16 9.21, 11.31 -1.2, 32 0 M0 32 C0.95 11.43, 11.25 -1.75, 32 0" stroke="#1e1e1e" stroke-width="2" fill="none"></path></g><g transform="translate(399.71875 260) rotate(0 114.84375 16.799999999999997)"><text x="0" y="0" font-family="Cascadia, Segoe UI Emoji" font-size="28px" fill="#1e1e1e" text-anchor="start" style="white-space: pre;" direction="ltr" dominant-baseline="text-before-edge">GitHub Actions</text></g><g stroke-linecap="round"><g transform="translate(193.5625 412) rotate(0 90 0)"><path d="M-0.8 -0.2 C29.38 -0.32, 150.44 -0.08, 180.43 -0.18 M0.98 -1.34 C31.1 -1.33, 149.6 1.02, 179.71 1.27" stroke="#1e1e1e" stroke-width="2" fill="none"></path></g><g transform="translate(193.5625 412) rotate(0 90 0)"><path d="M156.1 9.48 C161.53 8.34, 167.36 4.22, 179.71 1.27 M156.1 9.48 C160.89 8.02, 167.33 4.67, 179.71 1.27" stroke="#1e1e1e" stroke-width="2" fill="none"></path></g><g transform="translate(193.5625 412) rotate(0 90 0)"><path d="M156.34 -7.62 C161.8 -4.57, 167.56 -4.48, 179.71 1.27 M156.34 -7.62 C161.14 -5.07, 167.52 -4.42, 179.71 1.27" stroke="#1e1e1e" stroke-width="2" fill="none"></path></g></g><mask></mask><g stroke-linecap="round" transform="translate(1008.444669748209 281.6859694954235) rotate(0 176.92612317954809 116.22798914651048)"><path d="M0 0 C73.18 -3.39, 143.81 -1.03, 353.85 0 M0 0 C116.02 -1.72, 231.83 -0.97, 353.85 0 M353.85 0 C356.91 75.83, 356.18 156.4, 353.85 232.46 M353.85 0 C352.93 81.62, 353.07 163.25, 353.85 232.46 M353.85 232.46 C263.13 232.29, 169.64 229.99, 0 232.46 M353.85 232.46 C228.29 233.88, 101.96 233.36, 0 232.46 M0 232.46 C1.79 155.61, 1.34 77.34, 0 0 M0 232.46 C-2.29 162.48, -1.74 90.96, 0 0" stroke="#000000" stroke-width="1" fill="none"></path></g><g stroke-linecap="round" transform="translate(1008.0956590434107 283.1033922624572) rotate(0 29.71818911748022 6.52873983708443)"><path d="M0.85 -0.91 L58.79 0.9 L58.92 13.25 L-0.83 13.69" stroke="none" stroke-width="0" fill="#ced4da"></path><path d="M0 0 C23.43 1.2, 47.6 0.85, 59.44 0 M0 0 C21.91 0.51, 43.56 0.61, 59.44 0 M59.44 0 C59.63 5.45, 59.8 9.69, 59.44 13.06 M59.44 0 C59.2 2.88, 59.26 5.32, 59.44 13.06 M59.44 13.06 C44.5 12.31, 30.55 14.19, 0 13.06 M59.44 13.06 C38.32 13.06, 18.2 13, 0 13.06 M0 13.06 C0.16 8.53, -0.01 5.79, 0 0 M0 13.06 C-0.04 10.38, 0.1 7.64, 0 0" stroke="#000000" stroke-width="1" fill="none"></path></g><g stroke-linecap="round" transform="translate(1122.2749932451707 281.7679773068937) rotate(0 119.23812560743568 7.77700223868375)"><path d="M-0.65 0.9 L237.96 0.19 L237.65 16.19 L0.06 16.44" stroke="none" stroke-width="0" fill="#ced4da"></path><path d="M0 0 C50.34 -0.44, 100.77 -0.62, 238.48 0 M0 0 C62.8 -0.38, 125.63 -0.52, 238.48 0 M238.48 0 C238.88 3.04, 237.72 5.71, 238.48 15.55 M238.48 0 C238.27 5.39, 238.23 10.95, 238.48 15.55 M238.48 15.55 C148.38 15.32, 57.76 14.71, 0 15.55 M238.48 15.55 C154.88 15.07, 71.02 15.49, 0 15.55 M0 15.55 C0.01 11.6, -0.77 5.72, 0 0 M0 15.55 C0.06 9.38, 0.35 3.06, 0 0" stroke="#000000" stroke-width="1" fill="none"></path></g><g stroke-linecap="round"><g transform="translate(1006.3275928089879 303.7582702906818) rotate(0 177.2651524677733 -0.7654575851454695)"><path d="M0.7 0.78 C59.68 0.4, 295.92 -1.75, 354.98 -1.98 M-0.38 0.14 C58.38 -0.1, 295.11 -0.25, 354.27 -0.68" stroke="#000000" stroke-width="1" fill="none"></path></g></g><mask></mask><g transform="translate(1033.0462015327557 290.5097467144276) rotate(0 0.00004148618609178811 0.00004148618612020982)" stroke="none"><path fill="#e67700" d="M 3.14,-3.14 Q 3.14,-3.14 3.55,-2.55 3.97,-1.97 4.18,-1.28 4.40,-0.59 4.38,0.11 4.36,0.83 4.11,1.51 3.86,2.18 3.41,2.74 2.96,3.30 2.36,3.69 1.75,4.07 1.05,4.25 0.36,4.42 -0.35,4.36 -1.07,4.30 -1.73,4.02 -2.39,3.74 -2.92,3.26 -3.46,2.78 -3.81,2.15 -4.16,1.53 -4.30,0.82 -4.43,0.11 -4.34,-0.59 -4.24,-1.30 -3.92,-1.94 -3.60,-2.59 -3.09,-3.09 -2.59,-3.60 -1.94,-3.92 -1.30,-4.24 -0.59,-4.34 0.12,-4.43 0.82,-4.30 1.53,-4.16 2.15,-3.81 2.78,-3.46 3.26,-2.92 3.74,-2.39 4.02,-1.73 4.31,-1.07 4.36,-0.35 4.42,0.36 4.25,1.05 4.07,1.75 3.69,2.36 3.30,2.96 2.74,3.41 2.18,3.86 1.51,4.11 0.83,4.36 0.11,4.38 -0.60,4.40 -1.28,4.18 -1.97,3.97 -2.55,3.55 -3.14,3.13 -3.14,3.14 -3.14,3.14 -3.47,2.71 -3.80,2.29 -4.02,1.80 -4.24,1.32 -4.33,0.79 -4.43,0.26 -4.40,-0.26 -4.36,-0.80 -4.20,-1.31 -4.04,-1.82 -3.77,-2.28 -3.49,-2.73 -3.11,-3.11 -2.73,-3.49 -2.28,-3.77 -1.82,-4.05 -1.31,-4.20 -0.80,-4.36 -0.26,-4.40 0.26,-4.43 0.79,-4.33 1.32,-4.24 1.80,-4.02 2.29,-3.80 2.71,-3.47 3.14,-3.14 3.14,-3.14 L 3.14,-3.14 Z"></path></g><g transform="translate(1020.7369584194585 290.68546893705366) rotate(0 0.00004148618609178811 0.00004148618612020982)" stroke="none"><path fill="#c92a2a" d="M 3.14,-3.14 Q 3.14,-3.14 3.55,-2.55 3.97,-1.97 4.18,-1.28 4.40,-0.59 4.38,0.11 4.36,0.83 4.11,1.51 3.86,2.18 3.41,2.74 2.96,3.30 2.36,3.69 1.75,4.07 1.05,4.25 0.36,4.42 -0.35,4.36 -1.07,4.30 -1.73,4.02 -2.39,3.74 -2.92,3.26 -3.46,2.78 -3.81,2.15 -4.16,1.53 -4.30,0.82 -4.43,0.11 -4.34,-0.59 -4.24,-1.30 -3.92,-1.94 -3.60,-2.59 -3.09,-3.09 -2.59,-3.60 -1.94,-3.92 -1.30,-4.24 -0.59,-4.34 0.12,-4.43 0.82,-4.30 1.53,-4.16 2.15,-3.81 2.78,-3.46 3.26,-2.92 3.74,-2.39 4.02,-1.73 4.31,-1.07 4.36,-0.35 4.42,0.36 4.25,1.05 4.07,1.75 3.69,2.36 3.30,2.96 2.74,3.41 2.18,3.86 1.51,4.11 0.83,4.36 0.11,4.38 -0.60,4.40 -1.28,4.18 -1.97,3.97 -2.55,3.55 -3.14,3.13 -3.14,3.14 -3.14,3.14 -3.47,2.71 -3.80,2.29 -4.02,1.80 -4.24,1.32 -4.33,0.79 -4.43,0.26 -4.40,-0.26 -4.36,-0.80 -4.20,-1.31 -4.04,-1.82 -3.77,-2.28 -3.49,-2.73 -3.11,-3.11 -2.73,-3.49 -2.28,-3.77 -1.82,-4.05 -1.31,-4.20 -0.80,-4.36 -0.26,-4.40 0.26,-4.43 0.79,-4.33 1.32,-4.24 1.80,-4.02 2.29,-3.80 2.71,-3.47 3.14,-3.14 3.14,-3.14 L 3.14,-3.14 Z"></path></g><g transform="translate(1044.315405684627 290.5534924290348) rotate(0 0.00004148618609178811 0.00004148618612020982)" stroke="none"><path fill="#087f5b" d="M 3.14,-3.14 Q 3.14,-3.14 3.55,-2.55 3.97,-1.97 4.18,-1.28 4.40,-0.59 4.38,0.11 4.36,0.83 4.11,1.51 3.86,2.18 3.41,2.74 2.96,3.30 2.36,3.69 1.75,4.07 1.05,4.25 0.36,4.42 -0.35,4.36 -1.07,4.30 -1.73,4.02 -2.39,3.74 -2.92,3.26 -3.46,2.78 -3.81,2.15 -4.16,1.53 -4.30,0.82 -4.43,0.11 -4.34,-0.59 -4.24,-1.30 -3.92,-1.94 -3.60,-2.59 -3.09,-3.09 -2.59,-3.60 -1.94,-3.92 -1.30,-4.24 -0.59,-4.34 0.12,-4.43 0.82,-4.30 1.53,-4.16 2.15,-3.81 2.78,-3.46 3.26,-2.92 3.74,-2.39 4.02,-1.73 4.31,-1.07 4.36,-0.35 4.42,0.36 4.25,1.05 4.07,1.75 3.69,2.36 3.30,2.96 2.74,3.41 2.18,3.86 1.51,4.11 0.83,4.36 0.11,4.38 -0.60,4.40 -1.28,4.18 -1.97,3.97 -2.55,3.55 -3.14,3.13 -3.14,3.14 -3.14,3.14 -3.47,2.71 -3.80,2.29 -4.02,1.80 -4.24,1.32 -4.33,0.79 -4.43,0.26 -4.40,-0.26 -4.36,-0.80 -4.20,-1.31 -4.04,-1.82 -3.77,-2.28 -3.49,-2.73 -3.11,-3.11 -2.73,-3.49 -2.28,-3.77 -1.82,-4.05 -1.31,-4.20 -0.80,-4.36 -0.26,-4.40 0.26,-4.43 0.79,-4.33 1.32,-4.24 1.80,-4.02 2.29,-3.80 2.71,-3.47 3.14,-3.14 3.14,-3.14 L 3.14,-3.14 Z"></path></g><g stroke-linecap="round"><g transform="translate(1108.8687804324618 286.008465637138) rotate(0 3.075621749031143 3.4156326848162593)"><path d="M0.27 0.23 C1.21 1.33, 4.77 5.78, 5.8 6.91 M-0.03 0.05 C1.01 1.18, 5.36 5.27, 6.42 6.33" stroke="#000000" stroke-width="1" fill="none"></path></g></g><mask></mask><g stroke-linecap="round"><g transform="translate(1114.4484831254122 285.90617728103257) rotate(0 -2.919045487024107 3.154307313635897)"><path d="M-0.35 0.08 C-1.31 1.12, -4.61 5.51, -5.54 6.49 M0.12 -0.19 C-0.89 0.73, -4.62 4.89, -5.66 5.95" stroke="#000000" stroke-width="1" fill="none"></path></g></g><mask></mask><g stroke-linecap="round"><g transform="translate(1130.517310589651 283.8329941020436) rotate(0 0.10087620879824044 4.686826186445657)"><path d="M0 0 C0.03 1.56, 0.17 7.81, 0.2 9.37 M0 0 C0.03 1.56, 0.17 7.81, 0.2 9.37" stroke="#000000" stroke-width="1" fill="none"></path></g></g><mask></mask><g stroke-linecap="round"><g transform="translate(1125.8574173715733 288.8103658058951) rotate(0 4.951748657124483 -0.1498452421954255)"><path d="M0 0 C1.65 -0.05, 8.25 -0.25, 9.9 -0.3 M0 0 C1.65 -0.05, 8.25 -0.25, 9.9 -0.3" stroke="#000000" stroke-width="1" fill="none"></path></g></g><mask></mask><g stroke-linecap="round" transform="translate(1060.025519106077 309.1832934254287) rotate(0 130.92833605216356 7.729590509962449)"><path d="M3.86 0 C105.38 0.07, 206.58 4.29, 257.99 0 C263.11 0.46, 258.95 4.12, 261.86 3.86 C260.81 7.31, 260.6 8.6, 261.86 11.59 C260.97 14.25, 257.74 13.66, 257.99 15.46 C161.49 19.39, 64.67 18.54, 3.86 15.46 C-0.17 18.67, 2.14 12.09, 0 11.59 C-0.76 9.52, -0.58 6.45, 0 3.86 C-1.03 2.86, -0.12 -0.71, 3.86 0" stroke="none" stroke-width="0" fill="#ced4da"></path><path d="M3.86 0 C77.08 0.61, 150.32 0.91, 257.99 0 M3.86 0 C87.32 -2.16, 168.68 -1.53, 257.99 0 M257.99 0 C262.36 0.96, 262.2 2.31, 261.86 3.86 M257.99 0 C258.59 -0.7, 262.55 0.31, 261.86 3.86 M261.86 3.86 C262.13 5.39, 261.93 9.04, 261.86 11.59 M261.86 3.86 C261.67 5.43, 261.82 6.91, 261.86 11.59 M261.86 11.59 C263.55 12.36, 259.27 17.26, 257.99 15.46 M261.86 11.59 C260.66 14.61, 258.66 16.92, 257.99 15.46 M257.99 15.46 C181.73 14.03, 103.35 13.53, 3.86 15.46 M257.99 15.46 C189.7 16.97, 122.09 16.46, 3.86 15.46 M3.86 15.46 C-0.48 16.94, 1.5 12.69, 0 11.59 M3.86 15.46 C3.39 15.01, -0.87 13.11, 0 11.59 M0 11.59 C-0.72 9.24, 0.26 5.64, 0 3.86 M0 11.59 C0.19 8.73, 0.05 6.62, 0 3.86 M0 3.86 C-0.71 1.31, 0.21 0.17, 3.86 0 M0 3.86 C1.34 1.43, 0.6 -0.09, 3.86 0" stroke="#000000" stroke-width="1" fill="none"></path></g><g stroke-linecap="round"><g transform="translate(1014.0216670351274 316.96672710689904) rotate(89.99999999999994 6.113969126957841 3.2586316296810196)"><path d="M-0.32 0.45 C0.77 1.52, 4.11 6.55, 6.15 6.66 C8.2 6.77, 10.85 2.12, 11.94 1.08 M0.51 0.2 C1.55 1.09, 3.79 5.75, 5.61 5.77 C7.43 5.78, 10.21 1.1, 11.44 0.29" stroke="#000000" stroke-width="1" fill="none"></path></g></g><mask></mask><g stroke-linecap="round"><g transform="translate(1023.9637667152747 326.14494027250635) rotate(90.26145384971288 -0.23335979689346686 -6.698560558743495)"><path d="M-0.22 0.14 C-0.29 -2.08, -0.79 -10.59, -0.75 -12.87 M0.67 -0.26 C0.8 -2.66, 0.47 -11.44, 0.33 -13.56" stroke="#000000" stroke-width="1" fill="none"></path></g></g><mask></mask><g stroke-linecap="round"><g transform="translate(1044.907901703903 315.6868568861553) rotate(270 6.113969126957841 3.2586316296810196)"><path d="M-0.29 0.53 C0.88 1.57, 4.82 6.34, 6.81 6.4 C8.81 6.45, 10.7 1.79, 11.68 0.86 M0.57 0.33 C1.72 1.44, 4.58 7.1, 6.61 7.03 C8.63 6.97, 11.92 1.15, 12.72 -0.05" stroke="#000000" stroke-width="1" fill="none"></path></g></g><mask></mask><g stroke-linecap="round"><g transform="translate(1045.6501155023561 327.2148735621429) rotate(90.26145384971288 -0.23335979689346686 -6.698560558743495)"><path d="M0.44 -0.12 C0.32 -2.39, -0.94 -10.93, -1.01 -13.09 M0 -0.66 C0.06 -2.86, -0.04 -11.67, -0.06 -13.9" stroke="#000000" stroke-width="1" fill="none"></path></g></g><mask></mask><g stroke-linecap="round"><g transform="translate(1333.880023668083 312.0683453764593) rotate(0 8.033535831755444 -0.4262233519958727)"><path d="M0 0 C2.68 -0.14, 13.39 -0.71, 16.07 -0.85 M0 0 C2.68 -0.14, 13.39 -0.71, 16.07 -0.85" stroke="#000000" stroke-width="2" fill="none"></path></g></g><mask></mask><g stroke-linecap="round"><g transform="translate(1333.5542922849193 318.3658187842973) rotate(0 7.564746749295864 -0.8240517827799891)"><path d="M0 0 C2.52 -0.27, 12.61 -1.37, 15.13 -1.65 M0 0 C2.52 -0.27, 12.61 -1.37, 15.13 -1.65" stroke="#000000" stroke-width="2" fill="none"></path></g></g><mask></mask><g stroke-linecap="round"><g transform="translate(1333.8832647763732 323.19020847423394) rotate(0 7.564746749295864 -0.8240517827799891)"><path d="M0 0 C2.52 -0.27, 12.61 -1.37, 15.13 -1.65 M0 0 C2.52 -0.27, 12.61 -1.37, 15.13 -1.65" stroke="#000000" stroke-width="2" fill="none"></path></g></g><mask></mask><g stroke-linecap="round"><g transform="translate(1006.4397913249095 330.4275679409127) rotate(0 176.2562592228769 0.2156170820804988)"><path d="M-1.03 -0.37 C57.75 -0.48, 293.95 -0.32, 352.87 -0.08 M0.63 -1.6 C59.26 -1.61, 293.6 1.07, 352.11 1.19" stroke="#000000" stroke-width="1" fill="none"></path></g></g><mask></mask><g stroke-linecap="round" transform="translate(1064.0283877274278 312.97518121302505) rotate(0 3.559488294399614 3.5594882943996)"><path d="M1.1 0.96 C1.1 0.96, 1.1 0.96, 1.1 0.96 M1.1 0.96 C1.1 0.96, 1.1 0.96, 1.1 0.96 M1.5 6.6 C3.27 4.57, 5.03 2.54, 6.09 1.32 M1.5 6.6 C3.17 4.68, 4.84 2.76, 6.09 1.32" stroke="#c8c8c8" stroke-width="0.5" fill="none"></path><path d="M7.12 3.56 C7.12 3.77, 7.1 3.97, 7.06 4.18 C7.03 4.38, 6.97 4.58, 6.9 4.78 C6.83 4.97, 6.75 5.16, 6.64 5.34 C6.54 5.52, 6.42 5.69, 6.29 5.85 C6.15 6.01, 6.01 6.15, 5.85 6.29 C5.69 6.42, 5.52 6.54, 5.34 6.64 C5.16 6.75, 4.97 6.83, 4.78 6.9 C4.58 6.97, 4.38 7.03, 4.18 7.06 C3.97 7.1, 3.77 7.12, 3.56 7.12 C3.35 7.12, 3.14 7.1, 2.94 7.06 C2.74 7.03, 2.54 6.97, 2.34 6.9 C2.15 6.83, 1.96 6.75, 1.78 6.64 C1.6 6.54, 1.43 6.42, 1.27 6.29 C1.11 6.15, 0.97 6.01, 0.83 5.85 C0.7 5.69, 0.58 5.52, 0.48 5.34 C0.37 5.16, 0.29 4.97, 0.21 4.78 C0.14 4.58, 0.09 4.38, 0.05 4.18 C0.02 3.97, 0 3.77, 0 3.56 C0 3.35, 0.02 3.14, 0.05 2.94 C0.09 2.74, 0.14 2.54, 0.21 2.34 C0.29 2.15, 0.37 1.96, 0.48 1.78 C0.58 1.6, 0.7 1.43, 0.83 1.27 C0.97 1.11, 1.11 0.97, 1.27 0.83 C1.43 0.7, 1.6 0.58, 1.78 0.48 C1.96 0.37, 2.15 0.29, 2.34 0.21 C2.54 0.14, 2.74 0.09, 2.94 0.05 C3.14 0.02, 3.35 0, 3.56 0 C3.77 0, 3.97 0.02, 4.18 0.05 C4.38 0.09, 4.58 0.14, 4.78 0.21 C4.97 0.29, 5.16 0.37, 5.34 0.48 C5.52 0.58, 5.69 0.7, 5.85 0.83 C6.01 0.97, 6.15 1.11, 6.29 1.27 C6.42 1.43, 6.54 1.6, 6.64 1.78 C6.75 1.96, 6.83 2.15, 6.9 2.34 C6.97 2.54, 7.03 2.74, 7.06 2.94 C7.1 3.14, 7.11 3.46, 7.12 3.56 C7.13 3.66, 7.13 3.46, 7.12 3.56" stroke="#000000" stroke-width="1" fill="none"></path></g><g stroke-linecap="round"><g transform="translate(1070.3332607581942 319.5831283060595) rotate(0 2.250208345398562 1.873930240397172)"><path d="M0 0 C0.75 0.62, 3.75 3.12, 4.5 3.75 M0 0 C0.75 0.62, 3.75 3.12, 4.5 3.75" stroke="#000000" stroke-width="1" fill="none"></path></g></g><mask></mask><g stroke-linecap="round"><g transform="translate(1138.3249369359692 412.70771800126545) rotate(0 15.216528397692286 2.49180342393808)"><path d="M-0.04 0.16 C4.94 0.95, 24.74 4.29, 29.88 5.01 M-0.73 -0.23 C4.41 0.62, 25.6 4.88, 30.84 5.72" stroke="#000000" stroke-width="1" fill="none"></path></g></g><mask></mask><g stroke-linecap="round"><g transform="translate(1140.0869945117174 431.76121227789895) rotate(0 13.983781723956895 -2.8805228446124715)"><path d="M-0.55 0.02 C4.19 -1.05, 23.72 -5.41, 28.38 -6.29 M0.17 -0.44 C4.87 -1.48, 23.44 -4.92, 28.16 -5.86" stroke="#000000" stroke-width="1" fill="none"></path></g></g><mask></mask><g stroke-linecap="round"><g transform="translate(1186.6342077590946 416.98489929600123) rotate(0 14.936015146051545 -1.9890417809045857)"><path d="M0.41 -0.53 C5.4 -1.11, 24.47 -2.9, 29.35 -3.48 M-0.04 0.39 C5.15 -0.34, 25.43 -3.56, 30.31 -4.19" stroke="#000000" stroke-width="1" fill="none"></path></g></g><mask></mask><g stroke-linecap="round"><g transform="translate(1187.9657846473403 425.06113604131474) rotate(0 14.537297896319842 3.3380550743733863)"><path d="M-0.52 0.5 C4.22 1.69, 23.97 5.66, 28.91 6.66 M0.21 0.28 C4.83 1.61, 23.62 6.23, 28.39 7.36" stroke="#000000" stroke-width="1" fill="none"></path></g></g><mask></mask><g stroke-linecap="round"><g transform="translate(1185.0963120348445 430.9599747764712) rotate(0 9.269637895606024 10.69047769782901)"><path d="M-0.36 -0.03 C2.94 3.3, 15.34 17.66, 18.66 21.05 M1.65 -1.09 C4.9 2.93, 14.83 18.72, 17.78 22.41" stroke="#000000" stroke-width="1" fill="none"></path></g></g><mask></mask><g stroke-linecap="round"><g transform="translate(1178.1316999385128 432.52260197260307) rotate(0 -0.3425332773488208 11.731352159366168)"><path d="M0.06 -0.15 C0.05 3.68, -0.04 18.95, -0.22 22.96 M-0.58 -0.71 C-0.61 3.17, -0.52 19.43, -0.41 23.41" stroke="#000000" stroke-width="1" fill="none"></path></g></g><mask></mask><g stroke-linecap="round"><g transform="translate(1170.9552678083692 430.89864838005246) rotate(0 -10.398627195055951 9.728653056949895)"><path d="M1.02 -1.09 C-2.6 2.39, -17.83 17.07, -21.57 20.54 M0.09 0.95 C-3.15 4.15, -15.5 15.62, -19.27 18.98" stroke="#000000" stroke-width="1" fill="none"></path></g></g><mask></mask><g stroke-linecap="round"><g transform="translate(1151.8445849927966 389.83579449046897) rotate(0 9.269637895606024 10.69047769782901)"><path d="M-0.78 1.08 C2.04 4.86, 14.86 18.1, 17.92 21.61 M1.02 0.6 C4.14 4.09, 17.15 16.34, 20.3 19.61" stroke="#000000" stroke-width="1" fill="none"></path></g></g><mask></mask><g stroke-linecap="round"><g transform="translate(1182.6575592923657 411.25628675558414) rotate(0 12.159249675724823 -9.30262116419513)"><path d="M-0.62 0.23 C3.39 -2.93, 19.15 -14.88, 23.32 -17.84 M1.25 -0.7 C5.7 -3.67, 21.78 -16.46, 25.51 -19.57" stroke="#000000" stroke-width="1" fill="none"></path></g></g><mask></mask><g stroke-linecap="round"><g transform="translate(1175.6096638448892 387.5561459558628) rotate(0 -0.3425332773488208 11.731352159366168)"><path d="M-0.46 0.35 C-0.52 4.32, -0.53 20.01, -0.65 23.95 M0.31 0.05 C0.21 3.87, -1 19.38, -1.07 23.23" stroke="#000000" stroke-width="1" fill="none"></path></g></g><mask></mask><g transform="translate(1113.5409817798159 236.36363686285927) rotate(0 70.3125 12)"><text x="0" y="0" font-family="Cascadia, Segoe UI Emoji" font-size="20px" fill="#000000" text-anchor="start" style="white-space: pre;" direction="ltr" dominant-baseline="text-before-edge">Blog Website</text></g><g stroke-linecap="round" transform="translate(842.4577546839434 380.93111639639574) rotate(0 32.2305761824785 32.199712367130076)"><path d="M0 0 C0 0, 0 0, 0 0 M0 0 C0 0, 0 0, 0 0 M0.13 12.04 C2.76 9.02, 5.39 6, 10.63 -0.03 M0.13 12.04 C2.61 9.19, 5.09 6.34, 10.63 -0.03 M0.27 24.08 C6.5 16.91, 12.74 9.73, 21.26 -0.07 M0.27 24.08 C4.92 18.73, 9.57 13.38, 21.26 -0.07 M-0.26 36.88 C8.1 27.26, 16.46 17.65, 31.89 -0.1 M-0.26 36.88 C12.06 22.71, 24.38 8.54, 31.89 -0.1 M-0.12 48.92 C15.55 30.88, 31.23 12.85, 42.52 -0.14 M-0.12 48.92 C12.11 34.85, 24.34 20.77, 42.52 -0.14 M0.01 60.96 C15.61 43.01, 31.21 25.06, 53.15 -0.17 M0.01 60.96 C12.5 46.59, 24.99 32.22, 53.15 -0.17 M7.36 64.7 C23.94 45.63, 40.52 26.55, 63.78 -0.21 M7.36 64.7 C25.92 43.35, 44.47 22, 63.78 -0.21 M17.99 64.66 C34.03 46.21, 50.06 27.76, 64.57 11.08 M17.99 64.66 C33.41 46.92, 48.83 29.19, 64.57 11.08 M28.62 64.63 C38.66 53.08, 48.7 41.52, 64.7 23.12 M28.62 64.63 C40.45 51.02, 52.28 37.41, 64.7 23.12 M39.25 64.59 C47.54 55.05, 55.84 45.51, 64.84 35.16 M39.25 64.59 C49.28 53.06, 59.31 41.52, 64.84 35.16 M49.88 64.56 C53.54 60.35, 57.2 56.14, 64.97 47.2 M49.88 64.56 C53.58 60.31, 57.28 56.05, 64.97 47.2 M60.51 64.53 C61.55 63.33, 62.59 62.14, 64.45 60 M60.51 64.53 C61.77 63.08, 63.03 61.63, 64.45 60 M-0.19 64.24 C-0.19 64.24, -0.19 64.24, -0.19 64.24 M-0.19 64.24 C-0.19 64.24, -0.19 64.24, -0.19 64.24 M11.85 64.1 C8.07 60.82, 4.3 57.53, -0.22 53.61 M11.85 64.1 C7.04 59.92, 2.23 55.74, -0.22 53.61 M24.65 64.63 C14.96 56.21, 5.28 47.79, -0.26 42.98 M24.65 64.63 C15.02 56.25, 5.39 47.88, -0.26 42.98 M36.69 64.49 C24.13 53.58, 11.57 42.66, -0.29 32.35 M36.69 64.49 C25.91 55.12, 15.13 45.75, -0.29 32.35 M48.73 64.36 C38.54 55.5, 28.35 46.64, -0.33 21.72 M48.73 64.36 C36.96 54.13, 25.19 43.89, -0.33 21.72 M60.77 64.23 C40.54 46.64, 20.31 29.05, -0.36 11.09 M60.77 64.23 C45.77 51.19, 30.78 38.15, -0.36 11.09 M65.26 57.53 C47.14 41.78, 29.01 26.02, 0.36 1.11 M65.26 57.53 C47.75 42.31, 30.24 27.09, 0.36 1.11 M65.23 46.9 C43.89 28.35, 22.55 9.8, 10.89 -0.33 M65.23 46.9 C49.64 33.35, 34.05 19.8, 10.89 -0.33 M65.2 36.27 C51.73 24.56, 38.26 12.86, 22.93 -0.47 M65.2 36.27 C50.66 23.64, 36.13 11, 22.93 -0.47 M65.16 25.64 C54.61 16.47, 44.06 7.3, 34.97 -0.6 M65.16 25.64 C58.39 19.75, 51.61 13.86, 34.97 -0.6 M65.13 15.01 C58.88 9.58, 52.64 4.16, 47.77 -0.08 M65.13 15.01 C59.73 10.32, 54.33 5.62, 47.77 -0.08 M65.09 4.38 C63.27 2.8, 61.45 1.22, 59.81 -0.21 M65.09 4.38 C63.78 3.24, 62.48 2.11, 59.81 -0.21" stroke="#ced4da" stroke-width="1" fill="none"></path><path d="M0 0 C24.1 0, 48.2 0, 64.46 0 M0 0 C13.08 0, 26.17 0, 64.46 0 M64.46 0 C64.46 20.79, 64.46 41.58, 64.46 64.4 M64.46 0 C64.46 13.09, 64.46 26.19, 64.46 64.4 M64.46 64.4 C44.74 64.4, 25.02 64.4, 0 64.4 M64.46 64.4 C51.14 64.4, 37.82 64.4, 0 64.4 M0 64.4 C0 39.3, 0 14.2, 0 0 M0 64.4 C0 49.27, 0 34.13, 0 0" stroke="#000000" stroke-width="2" fill="none"></path></g><g stroke-linecap="round" transform="translate(848.7470794822618 387.30334475970085) rotate(0 25.94125138416001 25.94125138416001)"><path d="M51.88 25.94 C51.88 27.44, 51.75 28.97, 51.49 30.45 C51.23 31.92, 50.83 33.4, 50.32 34.81 C49.8 36.22, 49.16 37.61, 48.41 38.91 C47.66 40.21, 46.78 41.47, 45.81 42.62 C44.85 43.77, 43.77 44.85, 42.62 45.81 C41.47 46.78, 40.21 47.66, 38.91 48.41 C37.61 49.16, 36.22 49.8, 34.81 50.32 C33.4 50.83, 31.92 51.23, 30.45 51.49 C28.97 51.75, 27.44 51.88, 25.94 51.88 C24.44 51.88, 22.92 51.75, 21.44 51.49 C19.96 51.23, 18.48 50.83, 17.07 50.32 C15.66 49.8, 14.27 49.16, 12.97 48.41 C11.67 47.66, 10.42 46.78, 9.27 45.81 C8.12 44.85, 7.03 43.77, 6.07 42.62 C5.1 41.47, 4.23 40.21, 3.48 38.91 C2.72 37.61, 2.08 36.22, 1.56 34.81 C1.05 33.4, 0.65 31.92, 0.39 30.45 C0.13 28.97, 0 27.44, 0 25.94 C0 24.44, 0.13 22.92, 0.39 21.44 C0.65 19.96, 1.05 18.48, 1.56 17.07 C2.08 15.66, 2.72 14.27, 3.48 12.97 C4.23 11.67, 5.1 10.42, 6.07 9.27 C7.03 8.12, 8.12 7.03, 9.27 6.07 C10.42 5.1, 11.67 4.23, 12.97 3.48 C14.27 2.72, 15.66 2.08, 17.07 1.56 C18.48 1.05, 19.96 0.65, 21.44 0.39 C22.92 0.13, 24.44 0, 25.94 0 C27.44 0, 28.97 0.13, 30.45 0.39 C31.92 0.65, 33.4 1.05, 34.81 1.56 C36.22 2.08, 37.61 2.72, 38.91 3.48 C40.21 4.23, 41.47 5.1, 42.62 6.07 C43.77 7.03, 44.85 8.12, 45.81 9.27 C46.78 10.42, 47.66 11.67, 48.41 12.97 C49.16 14.27, 49.8 15.66, 50.32 17.07 C50.83 18.48, 51.23 19.96, 51.49 21.44 C51.75 22.92, 51.82 25.19, 51.88 25.94 C51.95 26.69, 51.95 25.19, 51.88 25.94" stroke="none" stroke-width="0" fill="#868e96"></path><path d="M51.88 25.94 C51.88 27.44, 51.75 28.97, 51.49 30.45 C51.23 31.92, 50.83 33.4, 50.32 34.81 C49.8 36.22, 49.16 37.61, 48.41 38.91 C47.66 40.21, 46.78 41.47, 45.81 42.62 C44.85 43.77, 43.77 44.85, 42.62 45.81 C41.47 46.78, 40.21 47.66, 38.91 48.41 C37.61 49.16, 36.22 49.8, 34.81 50.32 C33.4 50.83, 31.92 51.23, 30.45 51.49 C28.97 51.75, 27.44 51.88, 25.94 51.88 C24.44 51.88, 22.92 51.75, 21.44 51.49 C19.96 51.23, 18.48 50.83, 17.07 50.32 C15.66 49.8, 14.27 49.16, 12.97 48.41 C11.67 47.66, 10.42 46.78, 9.27 45.81 C8.12 44.85, 7.03 43.77, 6.07 42.62 C5.1 41.47, 4.23 40.21, 3.48 38.91 C2.72 37.61, 2.08 36.22, 1.56 34.81 C1.05 33.4, 0.65 31.92, 0.39 30.45 C0.13 28.97, 0 27.44, 0 25.94 C0 24.44, 0.13 22.92, 0.39 21.44 C0.65 19.96, 1.05 18.48, 1.56 17.07 C2.08 15.66, 2.72 14.27, 3.48 12.97 C4.23 11.67, 5.1 10.42, 6.07 9.27 C7.03 8.12, 8.12 7.03, 9.27 6.07 C10.42 5.1, 11.67 4.23, 12.97 3.48 C14.27 2.72, 15.66 2.08, 17.07 1.56 C18.48 1.05, 19.96 0.65, 21.44 0.39 C22.92 0.13, 24.44 0, 25.94 0 C27.44 0, 28.97 0.13, 30.45 0.39 C31.92 0.65, 33.4 1.05, 34.81 1.56 C36.22 2.08, 37.61 2.72, 38.91 3.48 C40.21 4.23, 41.47 5.1, 42.62 6.07 C43.77 7.03, 44.85 8.12, 45.81 9.27 C46.78 10.42, 47.66 11.67, 48.41 12.97 C49.16 14.27, 49.8 15.66, 50.32 17.07 C50.83 18.48, 51.23 19.96, 51.49 21.44 C51.75 22.92, 51.82 25.19, 51.88 25.94 C51.95 26.69, 51.95 25.19, 51.88 25.94" stroke="#000000" stroke-width="1" fill="none"></path></g><g stroke-linecap="round"><g transform="translate(864.4948434129481 397.7113953692592) rotate(0 8.101785926389937 15.719472469046622)" fill-rule="evenodd"><path d="M0 0 C0.42 0.15, 1.82 0.44, 2.52 0.89 C3.23 1.34, 3.55 2.53, 4.22 2.71 C4.89 2.89, 5.08 2.06, 6.54 1.95 C8 1.84, 11.59 1.99, 13 2.04 C14.42 2.09, 14.42 2.41, 15.02 2.24 C15.61 2.06, 15.96 1.45, 16.58 0.99 C17.2 0.54, 18.28 -0.6, 18.74 -0.51 C19.2 -0.42, 19.25 0.88, 19.34 1.56 C19.43 2.24, 18.96 2.92, 19.28 3.57 C19.6 4.22, 20.79 4.24, 21.27 5.47 C21.74 6.69, 22.12 9.05, 22.15 10.91 C22.19 12.77, 21.91 15.29, 21.46 16.61 C21.01 17.93, 20.23 18.26, 19.44 18.82 C18.64 19.39, 17.64 19.7, 16.69 20.01 C15.73 20.32, 14.08 20.43, 13.72 20.66 C13.35 20.9, 14.22 21.01, 14.5 21.4 C14.78 21.8, 15.21 21.91, 15.39 23.04 C15.57 24.17, 15.55 26.8, 15.57 28.18 C15.6 29.55, 15.7 30.68, 15.54 31.29 C15.37 31.89, 15.95 31.71, 14.57 31.82 C13.19 31.93, 8.61 32.08, 7.24 31.95 C5.87 31.82, 6.52 31.81, 6.32 31.05 C6.13 30.29, 6.39 27.92, 6.07 27.39 C5.74 26.86, 5.13 27.75, 4.38 27.86 C3.63 27.97, 2.48 28.26, 1.58 28.04 C0.68 27.82, -0.33 27.23, -1.03 26.54 C-1.74 25.86, -2.12 24.63, -2.66 23.92 C-3.19 23.22, -3.69 22.77, -4.24 22.31 C-4.79 21.86, -6.05 21.33, -5.95 21.18 C-5.85 21.03, -4.29 21.15, -3.63 21.4 C-2.97 21.65, -2.57 22.17, -1.98 22.67 C-1.4 23.18, -0.81 23.96, -0.12 24.44 C0.57 24.92, 1.35 25.41, 2.15 25.54 C2.94 25.67, 4.03 25.44, 4.66 25.23 C5.29 25.01, 5.68 24.67, 5.9 24.25 C6.13 23.83, 5.89 23.19, 6.02 22.72 C6.15 22.24, 6.43 21.7, 6.69 21.38 C6.95 21.06, 7.96 21.02, 7.56 20.78 C7.16 20.54, 5.35 20.25, 4.28 19.93 C3.21 19.62, 1.93 19.46, 1.14 18.9 C0.35 18.34, 0.01 17.89, -0.46 16.57 C-0.92 15.25, -1.61 12.78, -1.65 10.96 C-1.7 9.15, -1.09 6.81, -0.7 5.69 C-0.32 4.57, 0.57 4.81, 0.67 4.24 C0.76 3.67, -0.01 2.98, -0.12 2.28 C-0.23 1.57, -0.02 0.38, 0 0" stroke="none" stroke-width="0" fill="#fff" fill-rule="evenodd"></path><path d="M0 0 C0.42 0.15, 1.82 0.44, 2.52 0.89 C3.23 1.34, 3.55 2.53, 4.22 2.71 C4.89 2.89, 5.08 2.06, 6.54 1.95 C8 1.84, 11.59 1.99, 13 2.04 C14.42 2.09, 14.42 2.41, 15.02 2.24 C15.61 2.06, 15.96 1.45, 16.58 0.99 C17.2 0.54, 18.28 -0.6, 18.74 -0.51 C19.2 -0.42, 19.25 0.88, 19.34 1.56 C19.43 2.24, 18.96 2.92, 19.28 3.57 C19.6 4.22, 20.79 4.24, 21.27 5.47 C21.74 6.69, 22.12 9.05, 22.15 10.91 C22.19 12.77, 21.91 15.29, 21.46 16.61 C21.01 17.93, 20.23 18.26, 19.44 18.82 C18.64 19.39, 17.64 19.7, 16.69 20.01 C15.73 20.32, 14.08 20.43, 13.72 20.66 C13.35 20.9, 14.22 21.01, 14.5 21.4 C14.78 21.8, 15.21 21.91, 15.39 23.04 C15.57 24.17, 15.55 26.8, 15.57 28.18 C15.6 29.55, 15.7 30.68, 15.54 31.29 C15.37 31.89, 15.95 31.71, 14.57 31.82 C13.19 31.93, 8.61 32.08, 7.24 31.95 C5.87 31.82, 6.52 31.81, 6.32 31.05 C6.13 30.29, 6.39 27.92, 6.07 27.39 C5.74 26.86, 5.13 27.75, 4.38 27.86 C3.63 27.97, 2.48 28.26, 1.58 28.04 C0.68 27.82, -0.33 27.23, -1.03 26.54 C-1.74 25.86, -2.12 24.63, -2.66 23.92 C-3.19 23.22, -3.69 22.77, -4.24 22.31 C-4.79 21.86, -6.05 21.33, -5.95 21.18 C-5.85 21.03, -4.29 21.15, -3.63 21.4 C-2.97 21.65, -2.57 22.17, -1.98 22.67 C-1.4 23.18, -0.81 23.96, -0.12 24.44 C0.57 24.92, 1.35 25.41, 2.15 25.54 C2.94 25.67, 4.03 25.44, 4.66 25.23 C5.29 25.01, 5.68 24.67, 5.9 24.25 C6.13 23.83, 5.89 23.19, 6.02 22.72 C6.15 22.24, 6.43 21.7, 6.69 21.38 C6.95 21.06, 7.96 21.02, 7.56 20.78 C7.16 20.54, 5.35 20.25, 4.28 19.93 C3.21 19.62, 1.93 19.46, 1.14 18.9 C0.35 18.34, 0.01 17.89, -0.46 16.57 C-0.92 15.25, -1.61 12.78, -1.65 10.96 C-1.7 9.15, -1.09 6.81, -0.7 5.69 C-0.32 4.57, 0.57 4.81, 0.67 4.24 C0.76 3.67, -0.01 2.98, -0.12 2.28 C-0.23 1.57, -0.02 0.38, 0 0 M0 0 C0.42 0.15, 1.82 0.44, 2.52 0.89 C3.23 1.34, 3.55 2.53, 4.22 2.71 C4.89 2.89, 5.08 2.06, 6.54 1.95 C8 1.84, 11.59 1.99, 13 2.04 C14.42 2.09, 14.42 2.41, 15.02 2.24 C15.61 2.06, 15.96 1.45, 16.58 0.99 C17.2 0.54, 18.28 -0.6, 18.74 -0.51 C19.2 -0.42, 19.25 0.88, 19.34 1.56 C19.43 2.24, 18.96 2.92, 19.28 3.57 C19.6 4.22, 20.79 4.24, 21.27 5.47 C21.74 6.69, 22.12 9.05, 22.15 10.91 C22.19 12.77, 21.91 15.29, 21.46 16.61 C21.01 17.93, 20.23 18.26, 19.44 18.82 C18.64 19.39, 17.64 19.7, 16.69 20.01 C15.73 20.32, 14.08 20.43, 13.72 20.66 C13.35 20.9, 14.22 21.01, 14.5 21.4 C14.78 21.8, 15.21 21.91, 15.39 23.04 C15.57 24.17, 15.55 26.8, 15.57 28.18 C15.6 29.55, 15.7 30.68, 15.54 31.29 C15.37 31.89, 15.95 31.71, 14.57 31.82 C13.19 31.93, 8.61 32.08, 7.24 31.95 C5.87 31.82, 6.52 31.81, 6.32 31.05 C6.13 30.29, 6.39 27.92, 6.07 27.39 C5.74 26.86, 5.13 27.75, 4.38 27.86 C3.63 27.97, 2.48 28.26, 1.58 28.04 C0.68 27.82, -0.33 27.23, -1.03 26.54 C-1.74 25.86, -2.12 24.63, -2.66 23.92 C-3.19 23.22, -3.69 22.77, -4.24 22.31 C-4.79 21.86, -6.05 21.33, -5.95 21.18 C-5.85 21.03, -4.29 21.15, -3.63 21.4 C-2.97 21.65, -2.57 22.17, -1.98 22.67 C-1.4 23.18, -0.81 23.96, -0.12 24.44 C0.57 24.92, 1.35 25.41, 2.15 25.54 C2.94 25.67, 4.03 25.44, 4.66 25.23 C5.29 25.01, 5.68 24.67, 5.9 24.25 C6.13 23.83, 5.89 23.19, 6.02 22.72 C6.15 22.24, 6.43 21.7, 6.69 21.38 C6.95 21.06, 7.96 21.02, 7.56 20.78 C7.16 20.54, 5.35 20.25, 4.28 19.93 C3.21 19.62, 1.93 19.46, 1.14 18.9 C0.35 18.34, 0.01 17.89, -0.46 16.57 C-0.92 15.25, -1.61 12.78, -1.65 10.96 C-1.7 9.15, -1.09 6.81, -0.7 5.69 C-0.32 4.57, 0.57 4.81, 0.67 4.24 C0.76 3.67, -0.01 2.98, -0.12 2.28 C-0.23 1.57, -0.02 0.38, 0 0" stroke="#000000" stroke-width="1" fill="none"></path></g></g><mask></mask><g transform="translate(842.1883308664226 450.9303652879104) rotate(0 32.5 12.5)"><text x="0" y="0" font-family="Virgil, Segoe UI Emoji" font-size="20px" fill="#000000" text-anchor="start" style="white-space: pre;" direction="ltr" dominant-baseline="text-before-edge">GitHub</text></g><g transform="translate(776.2508308664226 499.0411349215748) rotate(0 98.4375 9.599999999999994)"><text x="98.4375" y="0" font-family="Cascadia, Segoe UI Emoji" font-size="16px" fill="#1e1e1e" text-anchor="middle" style="white-space: pre;" direction="ltr" dominant-baseline="text-before-edge">The GitHub Pages Repo</text></g><g stroke-linecap="round" transform="translate(741.5625 222) rotate(0 326 163)"><path d="M32 0 C161.36 1.03, 290.92 1.96, 620 0 M32 0 C266.84 1.73, 501.15 1.11, 620 0 M620 0 C641.91 -0.99, 651.69 9.13, 652 32 M620 0 C641.93 0.33, 651.45 10.21, 652 32 M652 32 C651.9 134.01, 653.1 238.1, 652 294 M652 32 C650.97 100.91, 650.65 170.3, 652 294 M652 294 C653.11 315.45, 641.41 326.52, 620 326 M652 294 C654.05 316.82, 641.98 324.64, 620 326 M620 326 C467.59 326.13, 315.29 325.84, 32 326 M620 326 C401.92 326.77, 183.83 326.23, 32 326 M32 326 C10.95 327.55, 0.63 313.89, 0 294 M32 326 C10.3 327.57, -1.23 313.41, 0 294 M0 294 C0.23 214.06, 1.46 137.44, 0 32 M0 294 C2.45 195.93, 2.44 100, 0 32 M0 32 C-0.11 11.74, 11.11 -0.85, 32 0 M0 32 C0.46 8.5, 12.54 1.22, 32 0" stroke="#1e1e1e" stroke-width="2" fill="none"></path></g><g transform="translate(776.2508308664226 260) rotate(0 98.4375 16.799999999999997)"><text x="0" y="0" font-family="Cascadia, Segoe UI Emoji" font-size="28px" fill="#1e1e1e" text-anchor="start" style="white-space: pre;" direction="ltr" dominant-baseline="text-before-edge">GitHub Pages</text></g><g stroke-linecap="round"><g transform="translate(657.5625 416) rotate(0 86 1)"><path d="M0.07 -1.19 C28.63 -0.65, 142.97 1.59, 171.68 2.24 M-1.35 0.81 C27 1.04, 141.71 0.25, 170.56 0.25" stroke="#1e1e1e" stroke-width="2" fill="none"></path></g><g transform="translate(657.5625 416) rotate(0 86 1)"><path d="M147.1 8.88 C152.85 5.52, 162.88 3.82, 170.56 0.25 M147.1 8.88 C155.35 6.14, 163.28 2.87, 170.56 0.25" stroke="#1e1e1e" stroke-width="2" fill="none"></path></g><g transform="translate(657.5625 416) rotate(0 86 1)"><path d="M147.04 -8.22 C152.67 -6.01, 162.72 -2.13, 170.56 0.25 M147.04 -8.22 C155.3 -4.78, 163.25 -1.86, 170.56 0.25" stroke="#1e1e1e" stroke-width="2" fill="none"></path></g></g><mask></mask></svg>